<?xml version="1.0" encoding="UTF-8" standalone="no"?>
<!-- Created with Inkscape (http://www.inkscape.org/) -->

<svg
   xmlns:dc="http://purl.org/dc/elements/1.1/"
   xmlns:cc="http://creativecommons.org/ns#"
   xmlns:rdf="http://www.w3.org/1999/02/22-rdf-syntax-ns#"
   xmlns:svg="http://www.w3.org/2000/svg"
   xmlns="http://www.w3.org/2000/svg"
   xmlns:sodipodi="http://sodipodi.sourceforge.net/DTD/sodipodi-0.dtd"
   xmlns:inkscape="http://www.inkscape.org/namespaces/inkscape"
   width="956.69287"
   height="956.69287"
   id="svg1878"
   sodipodi:version="0.32"
   inkscape:version="0.48.4 r9939"
   version="1.0"
   sodipodi:docname="logo_ana1.svg"
   inkscape:export-filename="/mnt/data/home/mdupont/Desktop/flosokaks/poverty/logo2.png"
   inkscape:export-xdpi="98.790001"
   inkscape:export-ydpi="98.790001">
  <defs
     id="defs1880" />
  <sodipodi:namedview
     pagecolor="#ffffff"
     bordercolor="#666666"
     borderopacity="1.0"
     inkscape:pageopacity="0.0"
     inkscape:pageshadow="2"
     inkscape:zoom="0.26924932"
     inkscape:cx="46.691507"
     inkscape:cy="430.36589"
     inkscape:document-units="mm"
     inkscape:current-layer="layer1"
     id="namedview1882"
     width="269.99999mm"
     height="189mm"
     units="mm"
     showguides="true"
     inkscape:guide-bbox="true"
     inkscape:window-width="1024"
     inkscape:window-height="719"
     inkscape:window-x="-4"
     inkscape:window-y="-4"
     showgrid="false"
     inkscape:window-maximized="0">
    <sodipodi:guide
       orientation="vertical"
       position="55.710447,464.25373"
       id="guide1887" />
    <sodipodi:guide
       orientation="vertical"
       position="946.063"
       id="guide1889" />
    <sodipodi:guide
       orientation="horizontal"
       position="787.37432,10.629921"
       id="guide1891" />
    <sodipodi:guide
       orientation="horizontal"
       position="10.629921"
       id="guide1893" />
    <sodipodi:guide
       orientation="vertical"
       position="-245.12597,1110.4949"
       id="guide1895" />
    <sodipodi:guide
       orientation="vertical"
       position="946.063,1155.0633"
       id="guide1897" />
  </sodipodi:namedview>
  <metadata
     id="metadata1884">
    <rdf:RDF>
      <cc:Work
         rdf:about="">
        <dc:format>image/svg+xml</dc:format>
        <dc:type
           rdf:resource="http://purl.org/dc/dcmitype/StillImage" />
        <dc:title></dc:title>
      </cc:Work>
    </rdf:RDF>
  </metadata>
  <g
     inkscape:label="Layer 1"
     inkscape:groupmode="layer"
     id="layer1"
     transform="translate(0,287.00789)">
    <path
       inkscape:connector-curvature="0"
       id="path11"
       d="M 298.17585,-25.416034 V 199.5695 H 598.15662 V -25.416034 H 298.17585 z M 573.15812,174.57112 H 323.17418 V -0.41763578 H 573.15812 V 174.57112 z m 24.9985,49.99677 49.99679,99.99319 -399.97438,0 49.99682,-99.99319 z" />
    <g
       transform="matrix(-0.08992175,-0.22774604,0.25397946,-0.04684118,589.14167,327.64421)"
       id="Layer 1-3"
       style="fill:#808080"
       inkscape:transform-center-x="28.055874"
       inkscape:transform-center-y="13.367377">
      <path
         style="fill:#808080;stroke:#000000;stroke-width:1"
         inkscape:connector-curvature="0"
         d="m 339,214 q 11,3 18,10 8,8 22,39 14,32 38,111 24,79 37,140 c 0,0 13.371,59.25 14,61 0.629,1.75 2.129,2.5 4.879,2 2.75,-0.5 2.121,-5 2.121,-5 l -9,-61 q -9,-61 -28,-134 -18,-73 -22,-99 -4,-26 0,-36 4,-10 16,-18 12,-7 27,-3 15,4 25,14 11,11 23,37 12,26 27,76 15,50 30,120 16,71 19,104 4,33 21,72 17,39 35,65 19,27 35,43 17,16 24,15 7,-1 15,-11 9,-9 36,-70 27,-61 43,-80 16,-19 33,-32 17,-13 34,-20 18,-7 35,-7 17,0 25,6 8,7 7,14 0,7 -14,32 -14,25 -38,91 -24,67 -27,82 -2,16 0,26 2,10 1,41 -1,32 -5,43 -3,11 -48,86 -44,76 -68,104 -24,28 -23,54 1,27 18,119 l 17,93 -157,0 -156,0 1,-30 q 1,-29 -5,-62 -5,-33 -25,-66 -19,-33 -52,-77 -33,-43 -53,-78 -19,-34 -41,-91 -21,-56 -33,-104 -12,-47 -61,-147 -49,-99 -57,-123 -8,-24 -8,-36 0,-11 10,-22 10,-10 17,-11 7,-1 14,2 8,3 74,113 c 0,0 62.871,105.75 66,110 3.129,4.25 28.621,16.75 21,-22 q -7.621,-38.75 0,0 0,-17 -64,-174 C 230,520 174.758,394 170.758,376.5 166.758,359 168,351 168,351 q 2,-12 9,-19 7,-6 19,-10 13,-3 20,-1 8,3 14,9 6,7 14,28 9,22 53,109 44,87 55,120 c 0,0 9.121,28.5 12,33 2.879,4.5 15.871,15.5 13,-8 q -2.871,-23.5 0,0 0,-11 -18,-84 -17,-73 -45,-171 c 0,0 -19.242,-64.5 -23.242,-83 -4,-18.5 -2,-31.5 -2,-31.5 8,-18 9.984,-21 26.242,-25.5 16.258,-4.5 24,-3 24,-3 z"
         id="path11382-7" />
    </g>
    <g
       transform="matrix(0.10167257,-0.25136082,-0.25620261,-0.00951973,365.07163,508.7913)"
       id="Layer 1"
       style="fill:#808080"
       inkscape:transform-center-y="55.210631"
       inkscape:transform-center-x="49.761281">
      <path
         style="fill:#808080;stroke:#000000;stroke-width:1"
         inkscape:connector-curvature="0"
         d="m 339,214 q 11,3 18,10 8,8 22,39 14,32 38,111 24,79 37,140 c 0,0 13.371,59.25 14,61 0.629,1.75 2.129,2.5 4.879,2 2.75,-0.5 2.121,-5 2.121,-5 l -9,-61 q -9,-61 -28,-134 -18,-73 -22,-99 -4,-26 0,-36 4,-10 16,-18 12,-7 27,-3 15,4 25,14 11,11 23,37 12,26 27,76 15,50 30,120 16,71 19,104 4,33 21,72 17,39 35,65 19,27 35,43 17,16 24,15 7,-1 15,-11 9,-9 36,-70 27,-61 43,-80 16,-19 33,-32 17,-13 34,-20 18,-7 35,-7 17,0 25,6 8,7 7,14 0,7 -14,32 -14,25 -38,91 -24,67 -27,82 -2,16 0,26 2,10 1,41 -1,32 -5,43 -3,11 -48,86 -44,76 -68,104 -24,28 -23,54 1,27 18,119 l 17,93 -157,0 -156,0 1,-30 q 1,-29 -5,-62 -5,-33 -25,-66 -19,-33 -52,-77 -33,-43 -53,-78 -19,-34 -41,-91 -21,-56 -33,-104 -12,-47 -61,-147 -49,-99 -57,-123 -8,-24 -8,-36 0,-11 10,-22 10,-10 17,-11 7,-1 14,2 8,3 74,113 c 0,0 62.871,105.75 66,110 3.129,4.25 28.621,16.75 21,-22 q -7.621,-38.75 0,0 0,-17 -64,-174 C 230,520 174.758,394 170.758,376.5 166.758,359 168,351 168,351 q 2,-12 9,-19 7,-6 19,-10 13,-3 20,-1 8,3 14,9 6,7 14,28 9,22 53,109 44,87 55,120 c 0,0 9.121,28.5 12,33 2.879,4.5 15.871,15.5 13,-8 q -2.871,-23.5 0,0 0,-11 -18,-84 -17,-73 -45,-171 c 0,0 -19.242,-64.5 -23.242,-83 -4,-18.5 -2,-31.5 -2,-31.5 8,-18 9.984,-21 26.242,-25.5 16.258,-4.5 24,-3 24,-3 z"
         id="path11382" />
    </g>
    <text
       xml:space="preserve"
       style="font-size:34.25964355px;font-style:normal;font-weight:normal;line-height:125%;letter-spacing:0px;word-spacing:0px;fill:#000000;fill-opacity:1;stroke:none;font-family:Sans"
       x="327.56058"
       y="109.39914"
       id="text2985"
       sodipodi:linespacing="125%"><tspan
         sodipodi:role="line"
         id="tspan2987"
         x="327.56058"
         y="109.39914"
         style="font-size:62.29026413px">against </tspan><tspan
         sodipodi:role="line"
         x="327.56058"
         y="187.26198"
         style="font-size:62.29026413px"
         id="tspan3039" /><tspan
         sodipodi:role="line"
         x="327.56058"
         y="265.12479"
         id="tspan2989"
         style="font-size:62.29026413px" /><tspan
         sodipodi:role="line"
         x="327.56058"
         y="342.98764"
         id="tspan2991"
         style="font-size:62.29026413px" /></text>
    <text
       xml:space="preserve"
       style="font-size:58.04686737px;font-style:normal;font-weight:normal;line-height:125%;letter-spacing:0px;word-spacing:0px;fill:#000000;fill-opacity:1;stroke:none;font-family:Sans"
       x="501.27072"
       y="397.61356"
       id="text3041"
       sodipodi:linespacing="125%"><tspan
         sodipodi:role="line"
         id="tspan3043"
         x="501.27072"
         y="397.61356"
         style="font-size:94.98579407px;font-style:normal;font-variant:normal;font-weight:bold;font-stretch:normal;font-family:Century Schoolbook L;-inkscape-font-specification:Century Schoolbook L Bold">Poverty</tspan></text>
    <text
       xml:space="preserve"
       style="font-size:79.32992554px;font-style:normal;font-weight:normal;line-height:125%;letter-spacing:0px;word-spacing:0px;fill:#000000;fill-opacity:1;stroke:none;font-family:Sans"
       x="62.732353"
       y="-43.369938"
       id="text3067"
       sodipodi:linespacing="125%"><tspan
         sodipodi:role="line"
         id="tspan3069"
         x="62.732353"
         y="-43.369938"
         style="font-style:normal;font-variant:normal;font-weight:bold;font-stretch:normal;font-family:Bitstream Charter;-inkscape-font-specification:Bitstream Charter Bold">Open Source</tspan></text>
  </g>
</svg>
