<?xml version="1.0" encoding="UTF-8" standalone="no"?>
<!-- Created with Inkscape (http://www.inkscape.org/) -->

<svg
   xmlns:dc="http://purl.org/dc/elements/1.1/"
   xmlns:cc="http://creativecommons.org/ns#"
   xmlns:rdf="http://www.w3.org/1999/02/22-rdf-syntax-ns#"
   xmlns:svg="http://www.w3.org/2000/svg"
   xmlns="http://www.w3.org/2000/svg"
   xmlns:sodipodi="http://sodipodi.sourceforge.net/DTD/sodipodi-0.dtd"
   xmlns:inkscape="http://www.inkscape.org/namespaces/inkscape"
   width="956.69287"
   height="956.69287"
   id="svg1878"
   sodipodi:version="0.32"
   inkscape:version="0.48.4 r9939"
   version="1.0"
   sodipodi:docname="logo_ana2.svg"
   inkscape:export-filename="/mnt/data/home/mdupont/Desktop/flosokaks/poverty/logo2.png"
   inkscape:export-xdpi="98.790001"
   inkscape:export-ydpi="98.790001">
  <defs
     id="defs1880" />
  <sodipodi:namedview
     pagecolor="#ffffff"
     bordercolor="#666666"
     borderopacity="1.0"
     inkscape:pageopacity="0.0"
     inkscape:pageshadow="2"
     inkscape:zoom="0.5"
     inkscape:cx="402.26583"
     inkscape:cy="759.91045"
     inkscape:document-units="mm"
     inkscape:current-layer="layer1"
     id="namedview1882"
     width="269.99999mm"
     height="189mm"
     units="mm"
     showguides="true"
     inkscape:guide-bbox="true"
     inkscape:window-width="1024"
     inkscape:window-height="719"
     inkscape:window-x="-4"
     inkscape:window-y="-4"
     showgrid="false"
     inkscape:window-maximized="0">
    <sodipodi:guide
       orientation="vertical"
       position="55.710447,464.25373"
       id="guide1887" />
    <sodipodi:guide
       orientation="vertical"
       position="946.063"
       id="guide1889" />
    <sodipodi:guide
       orientation="horizontal"
       position="787.37432,10.629921"
       id="guide1891" />
    <sodipodi:guide
       orientation="horizontal"
       position="10.629921"
       id="guide1893" />
    <sodipodi:guide
       orientation="vertical"
       position="-245.12597,1110.4949"
       id="guide1895" />
    <sodipodi:guide
       orientation="vertical"
       position="946.063,1155.0633"
       id="guide1897" />
  </sodipodi:namedview>
  <metadata
     id="metadata1884">
    <rdf:RDF>
      <cc:Work
         rdf:about="">
        <dc:format>image/svg+xml</dc:format>
        <dc:type
           rdf:resource="http://purl.org/dc/dcmitype/StillImage" />
        <dc:title></dc:title>
      </cc:Work>
    </rdf:RDF>
  </metadata>
  <g
     inkscape:label="Layer 1"
     inkscape:groupmode="layer"
     id="layer1"
     transform="translate(0,287.00789)">
    <g
       id="g11598"
       transform="translate(-742,224)">
      <path
         inkscape:connector-curvature="0"
         d="m 1167.6901,-176.28114 -0.8797,226.83527 17.3243,0 0.8797,-226.83527 -17.3243,0 z"
         id="path2818"
         style="font-size:medium;font-style:normal;font-variant:normal;font-weight:normal;font-stretch:normal;text-indent:0;text-align:start;text-decoration:none;line-height:normal;letter-spacing:normal;word-spacing:normal;text-transform:none;direction:ltr;block-progression:tb;writing-mode:lr-tb;text-anchor:start;color:#000000;fill:#ff7272;fill-opacity:1;fill-rule:nonzero;stroke:#000000;stroke-width:1.28885591;stroke-miterlimit:4;stroke-opacity:1;stroke-dasharray:none;marker:none;visibility:visible;display:inline;overflow:visible;enable-background:accumulate;font-family:AlArabiya;-inkscape-font-specification:AlArabiya" />
      <path
         inkscape:connector-curvature="0"
         d="m 1053.0027,-77.215344 0,13.883448 250.6862,0 0,-13.883448 -250.6862,0 z"
         id="path2820"
         style="font-size:medium;font-style:normal;font-variant:normal;font-weight:normal;font-stretch:normal;text-indent:0;text-align:start;text-decoration:none;line-height:normal;letter-spacing:normal;word-spacing:normal;text-transform:none;direction:ltr;block-progression:tb;writing-mode:lr-tb;text-anchor:start;color:#000000;fill:#ff7272;fill-opacity:1;fill-rule:nonzero;stroke:#000000;stroke-width:1.2129283;stroke-miterlimit:4;stroke-opacity:1;stroke-dasharray:none;marker:none;visibility:visible;display:inline;overflow:visible;enable-background:accumulate;font-family:AlArabiya;-inkscape-font-specification:AlArabiya" />
      <path
         inkscape:connector-curvature="0"
         d="m 1172.4207,-79.1708 -103.2531,107.46165 11.109,11.561656 97.6883,-101.691468 97.7088,101.691468 11.1089,-11.561656 -103.2531,-107.46165 -11.1088,0 z"
         id="path2824"
         style="font-size:medium;font-style:normal;font-variant:normal;font-weight:normal;font-stretch:normal;text-indent:0;text-align:start;text-decoration:none;line-height:normal;letter-spacing:normal;word-spacing:normal;text-transform:none;direction:ltr;block-progression:tb;writing-mode:lr-tb;text-anchor:start;color:#000000;fill:#ff7272;fill-opacity:1;fill-rule:nonzero;stroke:#000000;stroke-width:1.33574891;stroke-miterlimit:4;stroke-opacity:1;stroke-dasharray:none;marker:none;visibility:visible;display:inline;overflow:visible;enable-background:accumulate;font-family:AlArabiya;-inkscape-font-specification:AlArabiya" />
      <path
         inkscape:connector-curvature="0"
         d="m 1174.6794,-88.820999 -35.5098,-31.721411 c -9.9836,-8.91999 -21.6559,-5.87497 -29.8823,3.92895 -8.2263,9.80393 -13.4332,24.274102 -15.8631,38.449722 -2.4299,14.175619 -2.2191,28.741959 3.4676,38.000763 2.8435,4.629414 7.219,7.50742 12.5355,7.510248 5.3165,0.0033 11.4223,-2.615095 18.3603,-7.831192 l 44.8321,-33.708085 m -57.1988,-30.494076 c 4.5708,-5.44738 8.9404,-7.58467 16.2091,-1.09013 l 27.5369,24.625711 -34.8202,26.174751 c -5.5621,4.181647 -9.634,5.601821 -12.3952,5.600309 -2.7612,-0.0011 -4.3625,-1.16321 -5.6837,-3.314245 -2.6423,-4.301994 -3.4582,-14.227877 -1.6182,-24.961969 1.8399,-10.734082 6.2006,-21.587137 10.7713,-27.034427 z"
         id="path2828"
         style="font-size:medium;font-style:normal;font-variant:normal;font-weight:normal;font-stretch:normal;text-indent:0;text-align:start;text-decoration:none;line-height:normal;letter-spacing:normal;word-spacing:normal;text-transform:none;direction:ltr;block-progression:tb;writing-mode:lr-tb;text-anchor:start;color:#000000;fill:#ff7272;fill-opacity:1;stroke:#000000;stroke-width:1.14635456;stroke-miterlimit:4;stroke-opacity:1;stroke-dasharray:none;marker:none;visibility:visible;display:inline;overflow:visible;enable-background:accumulate;font-family:AlArabiya;-inkscape-font-specification:AlArabiya" />
      <path
         inkscape:transform-center-y="45.164803"
         inkscape:transform-center-x="-15.778898"
         inkscape:connector-curvature="0"
         d="m 1179.5963,-67.399488 53.1152,14.716398 c 8.2197,2.276979 15.0835,2.365243 20.6321,0.225391 5.5486,-2.139794 9.5759,-6.693735 11.6755,-12.332736 4.1992,-11.278002 1.6873,-25.509499 -3.5074,-38.300075 -5.1948,-12.79058 -13.3433,-24.75096 -23.7681,-30.96582 -10.4248,-6.21487 -23.179,-4.48031 -31.9263,8.1958 l -31.1143,45.0814 m 58.8756,-39.22795 c 5.7924,3.45318 12.379,12.24081 16.3126,21.92609 3.9337,9.685292 4.9435,19.653263 2.9925,24.893447 -0.9756,2.620124 -2.4291,4.392137 -5.3108,5.503499 -2.8819,1.111324 -7.3982,1.36882 -13.9879,-0.456584 l -41.2522,-11.424493 24.123,-34.985139 c 6.3689,-9.22923 11.3305,-8.90995 17.1228,-5.45682 z"
         id="path3625"
         style="font-size:medium;font-style:normal;font-variant:normal;font-weight:normal;font-stretch:normal;text-indent:0;text-align:start;text-decoration:none;line-height:normal;letter-spacing:normal;word-spacing:normal;text-transform:none;direction:ltr;block-progression:tb;writing-mode:lr-tb;text-anchor:start;color:#000000;fill:#ff7272;fill-opacity:1;stroke:#000000;stroke-width:1.19631922;stroke-miterlimit:4;stroke-opacity:1;stroke-dasharray:none;marker:none;visibility:visible;display:inline;overflow:visible;enable-background:accumulate;font-family:AlArabiya;-inkscape-font-specification:AlArabiya" />
    </g>
    <path
       inkscape:connector-curvature="0"
       id="path11"
       d="M 281.42069,40.79098 V 282.44489 H 593.67753 V 40.79098 H 281.42069 z m 286.23533,214.80349 h -260.214 V 67.64142 h 260.214 v 187.95305 z m 26.02151,53.70085 52.04281,107.40133 -416.34248,0 52.04283,-107.40133 z" />
    <g
       transform="matrix(-0.06604715,-0.16727851,0.18654684,-0.03440465,550.38004,433.81731)"
       id="Layer 1-3"
       style="fill:#808080"
       inkscape:transform-center-x="20.606927"
       inkscape:transform-center-y="9.8182762">
      <path
         style="fill:#808080;stroke:#000000;stroke-width:1"
         inkscape:connector-curvature="0"
         d="m 339,214 q 11,3 18,10 8,8 22,39 14,32 38,111 24,79 37,140 c 0,0 13.371,59.25 14,61 0.629,1.75 2.129,2.5 4.879,2 2.75,-0.5 2.121,-5 2.121,-5 l -9,-61 q -9,-61 -28,-134 -18,-73 -22,-99 -4,-26 0,-36 4,-10 16,-18 12,-7 27,-3 15,4 25,14 11,11 23,37 12,26 27,76 15,50 30,120 16,71 19,104 4,33 21,72 17,39 35,65 19,27 35,43 17,16 24,15 7,-1 15,-11 9,-9 36,-70 27,-61 43,-80 16,-19 33,-32 17,-13 34,-20 18,-7 35,-7 17,0 25,6 8,7 7,14 0,7 -14,32 -14,25 -38,91 -24,67 -27,82 -2,16 0,26 2,10 1,41 -1,32 -5,43 -3,11 -48,86 -44,76 -68,104 -24,28 -23,54 1,27 18,119 l 17,93 -157,0 -156,0 1,-30 q 1,-29 -5,-62 -5,-33 -25,-66 -19,-33 -52,-77 -33,-43 -53,-78 -19,-34 -41,-91 -21,-56 -33,-104 -12,-47 -61,-147 -49,-99 -57,-123 -8,-24 -8,-36 0,-11 10,-22 10,-10 17,-11 7,-1 14,2 8,3 74,113 c 0,0 62.871,105.75 66,110 3.129,4.25 28.621,16.75 21,-22 q -7.621,-38.75 0,0 0,-17 -64,-174 C 230,520 174.758,394 170.758,376.5 166.758,359 168,351 168,351 q 2,-12 9,-19 7,-6 19,-10 13,-3 20,-1 8,3 14,9 6,7 14,28 9,22 53,109 44,87 55,120 c 0,0 9.121,28.5 12,33 2.879,4.5 15.871,15.5 13,-8 q -2.871,-23.5 0,0 0,-11 -18,-84 -17,-73 -45,-171 c 0,0 -19.242,-64.5 -23.242,-83 -4,-18.5 -2,-31.5 -2,-31.5 8,-18 9.984,-21 26.242,-25.5 16.258,-4.5 24,-3 24,-3 z"
         id="path11382-7" />
    </g>
    <g
       transform="matrix(0.07467807,-0.18462346,-0.18817974,-0.0069922,370.94543,121.18552)"
       id="Layer 1"
       style="fill:#808080"
       inkscape:transform-center-y="40.55198"
       inkscape:transform-center-x="36.549456">
      <path
         style="fill:#808080;stroke:#000000;stroke-width:1"
         inkscape:connector-curvature="0"
         d="m 339,214 q 11,3 18,10 8,8 22,39 14,32 38,111 24,79 37,140 c 0,0 13.371,59.25 14,61 0.629,1.75 2.129,2.5 4.879,2 2.75,-0.5 2.121,-5 2.121,-5 l -9,-61 q -9,-61 -28,-134 -18,-73 -22,-99 -4,-26 0,-36 4,-10 16,-18 12,-7 27,-3 15,4 25,14 11,11 23,37 12,26 27,76 15,50 30,120 16,71 19,104 4,33 21,72 17,39 35,65 19,27 35,43 17,16 24,15 7,-1 15,-11 9,-9 36,-70 27,-61 43,-80 16,-19 33,-32 17,-13 34,-20 18,-7 35,-7 17,0 25,6 8,7 7,14 0,7 -14,32 -14,25 -38,91 -24,67 -27,82 -2,16 0,26 2,10 1,41 -1,32 -5,43 -3,11 -48,86 -44,76 -68,104 -24,28 -23,54 1,27 18,119 l 17,93 -157,0 -156,0 1,-30 q 1,-29 -5,-62 -5,-33 -25,-66 -19,-33 -52,-77 -33,-43 -53,-78 -19,-34 -41,-91 -21,-56 -33,-104 -12,-47 -61,-147 -49,-99 -57,-123 -8,-24 -8,-36 0,-11 10,-22 10,-10 17,-11 7,-1 14,2 8,3 74,113 c 0,0 62.871,105.75 66,110 3.129,4.25 28.621,16.75 21,-22 q -7.621,-38.75 0,0 0,-17 -64,-174 C 230,520 174.758,394 170.758,376.5 166.758,359 168,351 168,351 q 2,-12 9,-19 7,-6 19,-10 13,-3 20,-1 8,3 14,9 6,7 14,28 9,22 53,109 44,87 55,120 c 0,0 9.121,28.5 12,33 2.879,4.5 15.871,15.5 13,-8 q -2.871,-23.5 0,0 0,-11 -18,-84 -17,-73 -45,-171 c 0,0 -19.242,-64.5 -23.242,-83 -4,-18.5 -2,-31.5 -2,-31.5 8,-18 9.984,-21 26.242,-25.5 16.258,-4.5 24,-3 24,-3 z"
         id="path11382" />
    </g>
    <text
       xml:space="preserve"
       style="font-size:25.16356468px;font-style:normal;font-weight:normal;line-height:125%;letter-spacing:0px;word-spacing:0px;fill:#000000;fill-opacity:1;stroke:none;font-family:Sans"
       x="341.10059"
       y="238.39127"
       id="text2985"
       sodipodi:linespacing="125%"><tspan
         sodipodi:role="line"
         id="tspan2987"
         x="341.10059"
         y="238.39127"
         style="font-size:45.75193787px">against </tspan><tspan
         sodipodi:role="line"
         x="341.10059"
         y="295.58118"
         style="font-size:45.75193787px"
         id="tspan3039" /><tspan
         sodipodi:role="line"
         x="341.10059"
         y="352.77112"
         id="tspan2989"
         style="font-size:45.75193787px" /><tspan
         sodipodi:role="line"
         x="341.10059"
         y="409.96103"
         id="tspan2991"
         style="font-size:45.75193787px" /></text>
    <text
       xml:space="preserve"
       style="font-size:42.63517761px;font-style:normal;font-weight:normal;line-height:125%;letter-spacing:0px;word-spacing:0px;fill:#000000;fill-opacity:1;stroke:none;font-family:Sans"
       x="638.11444"
       y="340.36237"
       id="text3041"
       sodipodi:linespacing="125%"><tspan
         sodipodi:role="line"
         id="tspan3043"
         x="638.11444"
         y="340.36237"
         style="font-size:69.7666626px;font-style:normal;font-variant:normal;font-weight:bold;font-stretch:normal;font-family:Century Schoolbook L;-inkscape-font-specification:Century Schoolbook L Bold">Poverty</tspan></text>
    <text
       xml:space="preserve"
       style="font-size:58.2674942px;font-style:normal;font-weight:normal;line-height:125%;letter-spacing:0px;word-spacing:0px;fill:#000000;fill-opacity:1;stroke:none;font-family:Sans"
       x="55.710445"
       y="12.747801"
       id="text3067"
       sodipodi:linespacing="125%"><tspan
         sodipodi:role="line"
         id="tspan3069"
         x="55.710445"
         y="12.747801"
         style="font-style:normal;font-variant:normal;font-weight:bold;font-stretch:normal;font-family:Bitstream Charter;-inkscape-font-specification:Bitstream Charter Bold">Open Source</tspan></text>
    <text
       xml:space="preserve"
       style="font-size:22px;font-style:normal;font-weight:normal;line-height:125%;letter-spacing:0px;word-spacing:0px;fill:#000000;fill-opacity:1;stroke:none;font-family:Sans"
       x="-51.996418"
       y="766.24976"
       id="text11489"
       sodipodi:linespacing="125%"><tspan
         sodipodi:role="line"
         id="tspan11491"
         x="-51.996418"
         y="766.24976">By SimonWaldherr (Own work) [CC BY-SA 3.0 (http://creativecommons.org/licenses/by-sa/3.0)], via Wikimedia Commons</tspan></text>
  </g>
</svg>
