<?xml version="1.0" encoding="UTF-8" standalone="no"?>
<!-- Created with Inkscape (http://www.inkscape.org/) -->

<svg
   xmlns:dc="http://purl.org/dc/elements/1.1/"
   xmlns:cc="http://creativecommons.org/ns#"
   xmlns:rdf="http://www.w3.org/1999/02/22-rdf-syntax-ns#"
   xmlns:svg="http://www.w3.org/2000/svg"
   xmlns="http://www.w3.org/2000/svg"
   xmlns:sodipodi="http://sodipodi.sourceforge.net/DTD/sodipodi-0.dtd"
   xmlns:inkscape="http://www.inkscape.org/namespaces/inkscape"
   width="744.09448819"
   height="1052.3622047"
   id="svg11738"
   version="1.1"
   inkscape:version="0.48.4 r9939"
   sodipodi:docname="New document 36">
  <defs
     id="defs11740" />
  <sodipodi:namedview
     id="base"
     pagecolor="#ffffff"
     bordercolor="#666666"
     borderopacity="1.0"
     inkscape:pageopacity="0.0"
     inkscape:pageshadow="2"
     inkscape:zoom="0.7"
     inkscape:cx="375"
     inkscape:cy="520"
     inkscape:document-units="px"
     inkscape:current-layer="layer1"
     showgrid="false"
     inkscape:window-width="1024"
     inkscape:window-height="749"
     inkscape:window-x="0"
     inkscape:window-y="0"
     inkscape:window-maximized="1" />
  <metadata
     id="metadata11743">
    <rdf:RDF>
      <cc:Work
         rdf:about="">
        <dc:format>image/svg+xml</dc:format>
        <dc:type
           rdf:resource="http://purl.org/dc/dcmitype/StillImage" />
        <dc:title></dc:title>
      </cc:Work>
    </rdf:RDF>
  </metadata>
  <g
     inkscape:label="Layer 1"
     inkscape:groupmode="layer"
     id="layer1">
    <rect
       style="fill:#aa0000;fill-opacity:1;stroke:#f5f0b9;stroke-width:0;stroke-miterlimit:4;stroke-opacity:1;stroke-dasharray:none"
       id="rect11918"
       width="41.42857"
       height="422.85715"
       x="335.71429"
       y="313.79077"
       ry="0.18152483" />
    <rect
       style="fill:#aa0000;fill-opacity:1;stroke:#f5f0b9;stroke-width:0;stroke-miterlimit:4;stroke-opacity:1;stroke-dasharray:none"
       id="rect11920"
       width="477.14288"
       height="47.142857"
       x="117.14285"
       y="505.2193"
       ry="0.086816221" />
    <path
       style="fill:#ff2a2a;fill-opacity:1;stroke:#f5f0b9;stroke-width:0;stroke-miterlimit:4;stroke-opacity:1;stroke-dasharray:none"
       id="path11776"
       d="m 351.88012,517.75387 c -2.81624,-1.02924 -5.59992,-2.09271 -8.57741,-2.75091 -2.99992,-0.73917 -5.80198,-1.82278 -8.57353,-3.01614 -2.25471,-0.88393 -4.50883,-1.90688 -6.53543,-3.13243 -2.10224,-1.16905 -4.30406,-2.21697 -6.21934,-3.60376 -1.889,-1.25531 -3.96303,-2.28694 -5.76323,-3.63456 -1.5868,-1.26881 -3.45938,-2.18534 -5.08381,-3.41468 -2.00398,-1.19834 -3.75483,-2.65212 -5.60278,-4.0085 -1.8582,-1.08003 -3.72865,-2.18715 -5.34391,-3.52367 -1.63064,-1.43655 -3.30633,-2.864 -5.28646,-3.96016 -1.80212,-1.19054 -3.7727,-2.31577 -5.90489,-3.04217 -2.07848,-0.92464 -3.86469,-2.19859 -5.54216,-3.57804 -1.6473,-1.77995 -3.41344,-3.36146 -5.50801,-4.76706 -2.1536,-1.31182 -4.40168,-2.4323 -6.83555,-3.33565 -2.67555,-0.90905 -5.07161,-0.93151 -7.85507,-0.55313 -2.66948,0.13103 -5.05313,1.10957 -7.6536,1.54101 -1.06501,0.38502 -2.06749,0.83822 -3.09652,1.27845 -0.37525,0.16053 -1.51875,0.60782 -1.15486,0.42962 20.1997,-9.89185 22.38868,-11.09489 15.97588,-7.6335 -2.08243,1.35455 -3.9756,2.98104 -5.29073,4.91086 -1.08929,2.0166 -1.15482,4.25402 -1.23826,6.43077 -0.22779,2.05704 0.067,3.92535 1.08683,5.78582 0.85536,1.61921 1.89088,3.16899 2.90455,4.72349 1.19352,1.80772 2.35049,3.65355 3.30754,5.56181 0.85298,1.92903 1.75282,3.79925 2.23192,5.82741 0.15086,2.09156 0.81729,4.09921 1.28993,6.14548 0.50595,2.18718 0.61699,4.35134 0.006,6.52135 -0.71346,1.72937 -1.84337,3.28825 -2.77121,4.93281 -1.0538,1.67953 -2.47644,3.15455 -3.70348,4.74263 -1.36272,1.47399 -2.60411,3.00613 -3.86591,4.5391 -0.95743,1.57152 -2.09401,3.03844 -3.24835,4.50819 -0.98276,1.6165 -1.707,3.33655 -2.67261,4.95919 -1.14169,1.78669 -1.39894,3.79031 -1.58056,5.77908 -0.31909,2.38002 -0.12122,4.59864 0.75242,6.86524 0.75861,2.25021 1.55981,4.47883 2.37423,6.71504 0.35626,1.58344 1.03387,3.23746 3.27611,2.99648 2.20754,-0.42322 4.47386,-0.54215 6.72752,-0.64812 2.82057,-0.10951 5.64477,-0.1166 8.46773,-0.12435 2.86425,-0.003 5.72851,-3.8e-4 8.59276,8.5e-4 2.40133,-0.60705 4.86259,-0.905 7.35418,-1.06836 2.78127,-0.1417 5.56904,-0.14049 8.35427,-0.14563 2.85873,-4.8e-4 5.71745,0.004 8.57618,0.007 2.87825,0.11587 5.65306,0.007 8.47083,-0.45623 2.74989,-0.62103 5.69216,-0.28531 8.40338,-0.95778 1.54313,-0.56338 3.28461,-0.45676 4.87843,-0.78338 0.73612,-0.15085 1.4156,-0.45676 2.13408,-0.65939 2.5049,-0.45019 5.00029,-0.69814 7.49315,-1.19548 2.50701,-0.59602 4.85891,-1.40243 7.47229,-1.72381 2.5338,-0.006 4.85782,-0.80431 7.33847,-1.13632 2.73276,-0.63392 5.24218,-1.72787 7.8408,-2.65397 1.56609,-0.88041 0.771,-0.4731 2.38271,-1.2255 0,0 -16.3899,11.16955 -16.3899,11.16955 l 0,0 c -1.5923,0.75119 -0.76858,0.39428 -2.47405,1.06593 -2.63966,0.99704 -5.33711,1.92859 -8.19117,2.38601 -2.43119,0.46236 -4.84405,0.89402 -7.32403,1.13119 -2.49831,0.51378 -4.8594,1.39935 -7.40775,1.75287 -2.48283,0.453 -5.04265,0.60417 -7.45048,1.33488 -2.33503,0.54895 -4.77275,0.75742 -7.12279,1.26993 -2.81067,0.22758 -5.62388,0.43361 -8.3982,0.89993 -2.88073,0.33159 -5.77925,0.21504 -8.68049,0.22357 -2.85654,-0.003 -5.71312,-0.009 -8.56962,0.004 -2.75529,0.0228 -5.5169,0.0458 -8.25875,0.3012 -2.4928,0.27471 -4.93704,0.85527 -7.45568,0.90187 -2.86147,-0.002 -5.72297,-0.006 -8.58441,0.009 -2.80432,0.0214 -5.61126,0.0486 -8.40871,0.23164 -2.36704,0.17484 -4.77562,0.62658 -7.14073,0.31911 -2.49036,-0.88215 -4.0228,-2.37611 -4.41452,-4.68445 -0.76432,-2.23422 -1.56947,-4.44644 -2.27799,-6.69361 -1.00053,-2.466 -1.53661,-4.82479 -1.16485,-7.44951 0.11024,-2.15419 0.22986,-4.34937 1.15268,-6.38589 0.93155,-1.6561 1.95071,-3.27869 2.6363,-5.01985 0.85949,-1.66763 2.48177,-2.89086 3.19114,-4.62469 1.12859,-1.6591 2.45162,-3.17381 3.8291,-4.68146 1.42232,-1.38811 2.48243,-3.07856 3.76258,-4.54543 1.21817,-1.41775 1.91655,-3.1425 2.91533,-4.67439 1.25107,-1.72965 0.90784,-3.72605 0.556,-5.64868 -0.44018,-2.05397 -1.20846,-4.04857 -1.28925,-6.14928 -0.39161,-1.9243 -1.24831,-3.67133 -2.02903,-5.49669 -0.89166,-1.85805 -2.00979,-3.65675 -3.22614,-5.37441 -1.03849,-1.58951 -2.09105,-3.17944 -2.96997,-4.83416 -1.15637,-2.09879 -1.72237,-4.20121 -1.46513,-6.53887 0.0387,-2.3695 0.0607,-4.77356 0.83307,-7.0712 0.99449,-2.28398 2.83199,-4.04165 4.89146,-5.71302 6.91335,-5.23638 15.73214,-9.09016 24.62829,-11.46152 2.5616,-0.59478 5.08965,-1.2438 7.77038,-1.34396 2.95185,-0.15211 5.8298,0.28496 8.52718,1.33862 2.51165,1.04286 4.87311,2.24991 7.09056,3.69894 2.12874,1.44169 3.86593,3.13457 5.65614,4.85741 1.58584,1.20561 3.2374,2.33674 5.19139,3.09453 2.13766,0.94197 4.18476,2.04925 6.06857,3.32121 1.98852,1.23742 3.75976,2.67618 5.50499,4.14898 1.67043,1.25952 3.49838,2.35237 5.26781,3.50878 1.79853,1.38762 3.6617,2.70668 5.59815,3.95679 1.69981,1.14018 3.49681,2.16429 5.08707,3.42037 1.85268,1.2733 3.88359,2.33954 5.73883,3.61037 1.93541,1.27898 4.0544,2.32591 6.10103,3.46998 2.0489,1.09439 4.18472,2.08602 6.3695,2.97275 2.64594,1.17015 5.42786,2.05537 8.29642,2.76135 2.9037,0.78876 5.65305,1.95576 8.63294,2.53015 0,0 -17.38809,10.23072 -17.38809,10.23072 z"
       inkscape:connector-curvature="0" />
    <path
       style="fill:#ff2a2a;fill-opacity:1;stroke:#f5f0b9;stroke-width:0;stroke-miterlimit:4;stroke-opacity:1;stroke-dasharray:none"
       id="path11802"
       d="m 363.50657,505.99403 c -1.62206,2.36087 -3.42227,4.59621 -5.07228,6.9355 -1.16125,2.05342 -2.22898,4.14015 -2.81354,6.43217 -0.51353,2.62086 -0.51899,5.30443 -0.54888,7.9647 0.0632,2.27192 0.93391,4.31588 1.69233,6.4106 0.89444,1.92091 1.95265,3.7604 2.79603,5.70363 0.82079,1.82184 2.13593,3.28213 3.35657,4.82858 1.41647,1.30867 2.52238,2.94044 4.22159,3.90251 1.09886,0.87279 0.54018,0.48366 1.66799,1.17884 0,0 -17.80472,11.41519 -17.80472,11.41519 l 0,0 c -1.16422,-0.81026 -0.60602,-0.41241 -1.67631,-1.19111 -1.70943,-1.28327 -3.10451,-2.90077 -4.5661,-4.45229 -1.36334,-1.67709 -2.70562,-3.35766 -3.62623,-5.33285 -0.83961,-1.99063 -1.95433,-3.85428 -2.85119,-5.82109 -0.82298,-2.33236 -1.80048,-4.58849 -1.96912,-7.10023 0.008,-2.77148 -0.005,-5.55319 0.32434,-8.30953 0.40926,-2.58238 1.33693,-4.81594 2.52863,-7.11968 1.38008,-2.5343 3.54268,-4.4943 4.87389,-7.05588 0,0 19.467,-8.38906 19.467,-8.38906 z"
       inkscape:connector-curvature="0" />
    <path
       style="fill:#ff2a2a;fill-opacity:1;stroke:#f5f0b9;stroke-width:0;stroke-miterlimit:4;stroke-opacity:1;stroke-dasharray:none"
       id="path11824"
       d="m 349.44362,552.69054 c 0.0386,3.34403 -0.47141,6.63949 -0.89908,9.94506 -0.52299,3.13113 -1.28784,6.21445 -2.37141,9.19809 -0.86399,2.23577 -2.11487,4.29466 -3.0018,6.51505 -0.91582,2.05283 -1.50086,4.22633 -2.31022,6.31719 -0.66397,2.25113 -1.89541,4.24816 -2.89591,6.35115 -1.01124,2.42644 -2.06752,4.82789 -3.55218,7.00514 -1.57708,2.12197 -2.82837,4.45375 -4.26221,6.66801 -1.48999,2.11818 -2.55685,4.47623 -3.80777,6.73375 -1.33878,2.07844 -2.84934,4.05688 -3.99516,6.24941 -0.97059,2.35382 -2.33153,4.4909 -3.6997,6.62477 -1.56106,2.51384 -2.93348,5.13672 -4.28956,7.76464 -1.3049,2.40803 -2.67922,4.79395 -4.20361,7.07113 -1.1911,2.08993 -2.47119,4.12699 -3.6869,6.20338 -1.27798,1.85729 -2.22394,3.90647 -3.56984,5.71879 -1.2533,1.80855 -2.28805,3.73372 -3.24398,5.71217 -1.1516,2.39298 -2.56486,4.65036 -3.85654,6.96999 -1.33929,2.30853 -2.70651,4.61535 -4.20663,6.82447 -1.37009,2.04107 -3.1498,3.768 -4.77491,5.60384 -1.56425,1.42373 -2.84296,3.05 -4.10725,4.72837 -1.16214,1.68171 -2.46001,3.28624 -3.90868,4.73063 -1.80049,1.9567 -3.67734,3.84525 -5.55026,5.73557 -1.53294,1.45527 -3.157,2.79988 -4.84972,4.06287 0,0 -19.51457,7.73579 -19.51457,7.73579 l 0,0 c 1.68808,-1.21502 3.40153,-2.36984 4.90191,-3.82383 1.9911,-1.68955 3.64823,-3.70358 5.52131,-5.4861 1.22636,-1.59199 2.79757,-2.87777 4.0283,-4.4726 1.11038,-1.89917 2.41116,-3.59519 3.9628,-5.14517 1.8327,-1.56057 3.19224,-3.57333 4.97952,-5.19566 1.4033,-2.24287 2.89288,-4.43173 4.3367,-6.65563 1.14045,-2.35321 2.47158,-4.61689 3.87019,-6.82224 0.84214,-2.12848 1.86093,-4.12531 3.02294,-6.07 1.24421,-1.88943 2.7054,-3.60693 3.6199,-5.71402 1.48234,-1.8599 2.5245,-4.11753 3.71924,-6.15956 1.4363,-2.30485 2.95889,-4.55128 4.37624,-6.87721 1.25263,-2.68993 2.67206,-5.3102 4.1578,-7.87517 1.17955,-2.20935 2.77744,-4.13739 3.83034,-6.41617 0.89272,-2.43063 2.35485,-4.42348 3.77504,-6.57595 1.68109,-2.00258 2.33509,-4.57135 3.87777,-6.67202 1.35824,-2.26187 2.75941,-4.50329 4.2021,-6.71369 1.40168,-2.14331 2.94431,-4.15383 3.75108,-6.63969 0.78793,-2.19833 2.15194,-4.0886 2.87145,-6.29079 0.25856,-0.66144 0.62967,-1.27796 0.85517,-1.95138 0.47908,-1.43065 0.57757,-3.00521 1.52214,-4.26796 0.64228,-2.42921 1.97249,-4.45535 2.96498,-6.74294 1.47061,-2.68498 1.9208,-5.74064 2.70179,-8.67333 0.40802,-3.1908 1.1419,-6.37387 0.82194,-9.60462 0,0 18.88724,-9.62353 18.88724,-9.62353 z"
       inkscape:connector-curvature="0" />
    <path
       style="fill:#ff2a2a;fill-opacity:1;stroke:#f5f0b9;stroke-width:0;stroke-miterlimit:4;stroke-opacity:1;stroke-dasharray:none"
       id="path11840"
       d="m 363.64953,552.87888 c -0.75373,3.20538 -1.49067,6.42412 -2.55121,9.54409 -0.95493,2.64867 -1.88409,5.2898 -2.6688,7.99393 -0.96643,2.29049 -1.45789,4.68414 -1.71654,7.14363 0.0199,2.5906 -0.47616,5.09439 -0.96813,7.62069 -0.19339,2.54139 -1.22106,4.8309 -2.14811,7.1615 -1.15631,2.56146 -1.9823,5.1948 -2.42809,7.96619 -0.23189,2.68183 -0.36515,5.33318 -0.9133,7.97362 -0.64875,2.70126 -1.71268,5.28762 -3.03497,7.72487 -1.25872,2.22998 -2.54931,4.44595 -4.14791,6.45152 -1.37656,1.7778 -2.98236,3.35331 -4.46207,5.04449 -1.93411,2.2141 -3.97286,4.34101 -6.50699,5.85525 -8.64944,4.10598 -16.34681,9.86566 -24.99608,13.86363 31.97673,-17.42946 18.18581,-11.05397 11.62935,-6.27246 -2.31939,2.03847 -4.73906,3.95558 -7.20733,5.8102 0,0 -19.49989,7.83997 -19.49989,7.83997 l 0,0 c 2.31045,-2.01195 4.99385,-3.59562 7.16608,-5.77596 6.79473,-6.2845 19.39658,-7.82072 24.36908,-14.77008 7.09196,-3.8519 20.80546,-9.4725 -11.08836,6.89164 0.40656,-0.25227 0.81312,-0.50453 1.21967,-0.75679 0.44044,-0.18558 0.90958,-0.31407 1.32132,-0.55674 1.62062,-0.95514 2.77542,-2.7164 4.17776,-3.92877 1.4588,-1.68498 2.82267,-3.41249 4.47948,-4.89159 1.4647,-2.04829 3.18176,-3.89823 4.31346,-6.18599 1.26881,-2.31167 2.54918,-4.58298 3.27622,-7.14833 0.53751,-2.62324 1.08484,-5.1658 1.02641,-7.87224 0.33341,-2.88165 0.8843,-5.73529 2.20799,-8.34817 0.74366,-2.29065 2.08266,-4.39544 2.28523,-6.8282 0.39745,-2.49921 1.23118,-4.9007 1.07706,-7.46197 0.16878,-2.5971 0.42157,-5.21417 1.46831,-7.63032 1.1188,-2.57177 1.53072,-5.45495 2.72421,-8.01869 1.11553,-2.97793 2.10937,-6.02758 2.52675,-9.19206 0,0 19.0694,-9.24686 19.0694,-9.24686 z"
       inkscape:connector-curvature="0" />
    <path
       style="fill:#ff2a2a;fill-opacity:1;stroke:#f5f0b9;stroke-width:0;stroke-miterlimit:4;stroke-opacity:1;stroke-dasharray:none"
       id="path11840-0"
       d="m 353.11665,556.4311 c 0.70621,3.12804 1.39508,6.26981 2.41483,9.30293 0.92121,2.57298 1.81636,5.13947 2.56346,7.77309 0.93962,2.22005 1.39439,4.55848 1.61123,6.96996 -0.0688,2.55039 0.38854,4.99704 0.84135,7.46602 0.14895,2.49438 1.15085,4.71132 2.04968,6.97224 1.12759,2.48003 1.918,5.0425 2.31925,7.75433 0.18544,2.63125 0.27121,5.23599 0.77898,7.81529 0.60893,2.6356 1.64212,5.14341 2.94081,7.49531 1.23793,2.15015 2.50854,4.28538 4.09624,6.20263 1.36624,1.70093 2.96933,3.19468 4.44207,4.80669 1.92492,2.11059 3.95786,4.13166 6.50597,5.53218 8.71707,3.73464 16.43512,9.13059 25.15403,12.75891 -32.18454,-16.02103 -18.28257,-10.23495 -11.70616,-5.7613 2.31993,1.92408 4.74411,3.72518 7.21887,5.46303 0,0 19.67894,7.02515 19.67894,7.02515 l 0,0 c -2.31136,-1.8983 -5.00991,-3.36186 -7.17757,-5.4308 -6.79047,-5.94445 -19.57427,-7.00985 -24.49955,-13.67325 -7.13832,-3.53973 -20.97573,-8.58563 11.14452,6.38987 -0.40863,-0.23387 -0.81726,-0.46774 -1.22588,-0.70161 -0.44433,-0.16705 -0.9189,-0.27688 -1.33297,-0.50113 -1.62981,-0.88261 -2.77087,-2.57514 -4.17393,-3.71867 -1.45159,-1.60668 -2.80585,-3.25856 -4.46263,-4.65559 -1.45077,-1.96402 -3.16184,-3.72391 -4.26955,-5.93542 -1.24666,-2.2302 -2.50583,-4.42026 -3.1969,-6.91934 -0.49728,-2.56275 -1.00608,-5.04575 -0.89589,-7.71152 -0.28492,-2.82431 -0.79149,-5.61334 -2.0883,-8.13806 -0.71313,-2.2281 -2.03504,-4.2522 -2.19534,-6.63936 -0.35722,-2.44565 -1.15984,-4.77966 -0.9551,-7.30592 -0.12287,-2.5501 -0.33079,-5.11688 -1.34971,-7.45777 -1.08926,-2.4915 -1.45398,-5.31455 -2.61933,-7.79549 -1.07832,-2.89136 -2.03157,-5.85762 -2.39656,-8.95733 0,0 -19.21486,-8.42507 -19.21486,-8.42507 z"
       inkscape:connector-curvature="0" />
    <path
       style="fill:#ff2a2a;fill-opacity:1;stroke:#f5f0b9;stroke-width:0;stroke-miterlimit:4;stroke-opacity:1;stroke-dasharray:none"
       id="path11824-7"
       d="m 362.57923,548.55624 c -0.0386,3.34184 0.47141,6.66628 0.89908,9.99615 0.52299,3.16085 1.28784,6.28764 2.37141,9.33285 0.86399,2.28486 2.11487,4.41484 3.0018,6.68563 0.91582,2.10487 1.50086,4.31161 2.31022,6.44846 0.66397,2.28886 1.89541,4.35587 2.89591,6.51571 1.01124,2.48391 2.06752,4.94538 3.55218,7.20699 1.57708,2.21159 2.82837,4.61447 4.26221,6.91021 1.48999,2.20285 2.55685,4.62152 3.80777,6.95013 1.33878,2.15451 2.84934,4.21879 3.99516,6.47643 0.97059,2.40897 2.33153,4.62339 3.6997,6.83501 1.56106,2.60254 2.93348,5.30341 4.28956,8.00839 1.3049,2.48218 2.67922,4.94619 4.20361,7.31 1.1911,2.15761 2.47119,4.26741 3.6869,6.41288 1.27798,1.92991 2.22394,4.03285 3.56984,5.92165 1.2533,1.87977 2.28805,3.86374 3.24398,5.89651 1.1516,2.45842 2.56486,4.7961 3.85654,7.18913 1.33929,2.38464 2.70651,4.76915 4.20663,7.06351 1.37009,2.11893 3.1498,3.94699 4.77491,5.87518 1.56425,1.51261 2.84296,3.21155 4.10725,4.96176 1.16214,1.74775 2.46001,3.42603 3.90868,4.95274 1.80049,2.05901 3.67734,4.05421 5.55026,6.05096 1.53294,1.54238 3.157,2.97928 4.84972,4.33845 0,0 19.51457,8.8447 19.51457,8.8447 l 0,0 c -1.68808,-1.31094 -3.40153,-2.56313 -4.90191,-4.10238 -1.9911,-1.80269 -3.64823,-3.91089 -5.52131,-5.79984 -1.22636,-1.66168 -2.79757,-3.03674 -4.0283,-4.70151 -1.11038,-1.96227 -2.41116,-3.7322 -3.9628,-5.37035 -1.8327,-1.66472 -3.19224,-3.75473 -4.97952,-5.47862 -1.4033,-2.32262 -2.89288,-4.59612 -4.3367,-6.90207 -1.14045,-2.41801 -2.47158,-4.75733 -3.87019,-7.04216 -0.84214,-2.17633 -1.86093,-4.23105 -3.02294,-6.24178 -1.24421,-1.96013 -2.7054,-3.76066 -3.6199,-5.91972 -1.48234,-1.94413 -2.5245,-4.26098 -3.71924,-6.3709 -1.4363,-2.38647 -2.95889,-4.71942 -4.37624,-7.12589 -1.25263,-2.76111 -2.67206,-5.46204 -4.1578,-8.11143 -1.17955,-2.27638 -2.77744,-4.29522 -3.83034,-6.63383 -0.89272,-2.48136 -2.35485,-4.5573 -3.77504,-6.79047 -1.68109,-2.0981 -2.33509,-4.70404 -3.87777,-6.89237 -1.35824,-2.33905 -2.75941,-4.66009 -4.2021,-6.95247 -1.40168,-2.22296 -2.94431,-4.32114 -3.75108,-6.85285 -0.78793,-2.2431 -2.15194,-4.21088 -2.87145,-6.45396 -0.25856,-0.67613 -0.62967,-1.31374 -0.85517,-1.99997 -0.47908,-1.45787 -0.57757,-3.03803 -1.52214,-4.35446 -0.64228,-2.4657 -1.97249,-4.56743 -2.96498,-6.91142 -1.47061,-2.76855 -1.9208,-5.84979 -2.70179,-8.82686 -0.40802,-3.21398 -1.1419,-6.43876 -0.82194,-9.65132 0,0 -18.88724,-10.6968 -18.88724,-10.6968 z"
       inkscape:connector-curvature="0" />
    <path
       style="fill:#ff2a2a;fill-opacity:1;stroke:#f5f0b9;stroke-width:0;stroke-miterlimit:4;stroke-opacity:1;stroke-dasharray:none"
       id="path11776-7"
       d="m 365.47121,515.79372 c 3.08793,-0.63647 6.14899,-1.31257 9.33157,-1.54751 3.22109,-0.31413 6.30486,-1.00805 9.37828,-1.81824 2.48368,-0.57059 4.9933,-1.28288 7.30807,-2.23481 2.38162,-0.88332 4.84233,-1.62869 7.07362,-2.76114 2.17917,-1.00238 4.50559,-1.74984 6.61124,-2.85923 1.87151,-1.06033 3.9691,-1.72001 5.8717,-2.73464 2.28635,-0.92752 4.36161,-2.15226 6.51797,-3.26359 2.11407,-0.82835 4.24588,-1.68248 6.15955,-2.80761 1.94856,-1.22478 3.94164,-2.4337 6.18398,-3.26063 2.07761,-0.94911 4.31569,-1.80705 6.64349,-2.2351 2.31053,-0.63783 4.38775,-1.67422 6.37348,-2.83398 2.03128,-1.57214 4.14665,-2.92476 6.5656,-4.05015 2.46163,-1.02123 4.98369,-1.83375 7.65503,-2.39792 2.92052,-0.53462 5.38472,-0.20703 8.17005,0.58553 2.71558,0.52392 4.97579,1.86933 7.56312,2.68917 1.01982,0.54795 1.96242,1.15622 2.93477,1.75516 0.35458,0.21841 1.44308,0.84129 1.10354,0.60654 -18.84797,-13.03053 -20.86543,-14.57614 -14.94309,-10.11234 1.87911,1.68435 3.51197,3.61803 4.49342,5.77612 0.73302,2.21347 0.37279,4.50212 0.0426,6.73159 -0.15917,2.12864 -0.81879,3.98861 -2.22126,5.73454 -1.18753,1.52423 -2.54676,2.95138 -3.88444,4.38655 -1.57071,1.6668 -3.11119,3.37776 -4.45835,5.18154 -1.24427,1.84018 -2.52543,3.61359 -3.40481,5.60942 -0.55449,2.10842 -1.62228,4.05595 -2.49848,6.07119 -0.93732,2.15388 -1.46481,4.34207 -1.25193,6.64188 0.40206,1.86592 1.26423,3.61908 1.90258,5.42996 0.76098,1.86492 1.9397,3.57548 2.89601,5.3726 1.11741,1.70075 2.09914,3.44297 3.10166,5.18904 0.68267,1.74081 1.56927,3.40127 2.47355,5.06723 0.70009,1.79033 1.11499,3.64832 1.7963,5.4424 0.83074,1.98694 0.71203,4.06548 0.5185,6.11783 -0.12715,2.471 -0.75419,4.70196 -2.08418,6.88295 -1.20876,2.18113 -2.45713,4.33405 -3.72051,6.49275 -0.66828,1.56081 -1.67999,3.1465 -3.93592,2.57306 -2.18551,-0.75398 -4.48949,-1.20663 -6.78296,-1.64421 -2.8748,-0.5241 -5.7729,-0.94441 -8.66961,-1.36521 -2.93992,-0.42239 -5.88109,-0.83829 -8.82189,-1.25598 -2.34934,-0.9696 -4.81925,-1.63309 -7.34603,-2.16393 -2.8283,-0.55115 -5.69058,-0.95768 -8.54905,-1.3703 -2.93482,-0.41863 -5.87062,-0.83198 -8.80601,-1.24754 -2.97708,-0.30296 -5.80497,-0.81998 -8.60938,-1.70373 -2.7045,-1.0348 -5.78932,-1.12319 -8.44431,-2.20475 -1.4766,-0.79958 -3.28486,-0.9457 -4.85874,-1.51152 -0.72692,-0.26133 -1.36606,-0.67232 -2.06496,-0.98381 -2.48564,-0.82496 -5.00014,-1.44252 -7.4644,-2.31374 -2.45994,-0.97381 -4.72043,-2.13924 -7.34204,-2.84886 -2.6002,-0.37662 -4.8336,-1.52981 -7.31692,-2.23085 -2.68446,-1.04543 -5.05173,-2.52678 -7.54265,-3.85021 -1.4396,-1.12588 -0.70115,-0.59468 -2.21206,-1.59683 0,0 14.69254,13.77476 14.69254,13.77476 l 0,0 c 1.4912,0.99806 0.71373,0.51404 2.33631,1.44765 2.5195,1.40168 5.11084,2.74512 7.95356,3.62851 2.40763,0.82657 4.80231,1.61919 7.30306,2.22352 2.46671,0.88876 4.72152,2.13616 7.27024,2.86902 2.46242,0.82459 5.06157,1.35299 7.39396,2.44948 2.29236,0.9007 4.7552,1.46962 7.06994,2.3354 2.84209,0.64293 5.6909,1.26427 8.45005,2.14508 2.89414,0.75912 5.89216,1.06435 8.86908,1.4974 2.93315,0.41524 5.86716,0.8261 8.79717,1.25776 2.82435,0.42624 5.65516,0.85356 8.42127,1.5148 2.50674,0.64444 4.90518,1.59332 7.48204,2.00918 2.93804,0.41682 5.8766,0.83106 8.81151,1.26439 2.87496,0.43195 5.75149,0.8703 8.58852,1.46588 2.39671,0.52432 4.78315,1.33676 7.27004,1.36951 2.72527,-0.5343 4.58399,-1.83192 5.42718,-4.12593 1.21157,-2.16401 2.46085,-4.29964 3.61761,-6.485 1.49835,-2.36554 2.4994,-4.68983 2.61923,-7.41778 0.29841,-2.21041 0.59502,-4.46394 0.0367,-6.67334 -0.63995,-1.82318 -1.37625,-3.62503 -1.74743,-5.49888 -0.56377,-1.82439 -1.99556,-3.30766 -2.39255,-5.17753 -0.84168,-1.85506 -1.91055,-3.59148 -3.03668,-5.32866 -1.195,-1.62199 -1.96037,-3.49897 -2.99437,-5.18038 -0.97975,-1.62232 -1.36719,-3.48132 -2.0999,-5.18781 -0.95393,-1.94484 -0.22011,-3.92819 0.50845,-5.83514 0.84436,-2.02782 2.01421,-3.94716 2.49852,-6.07516 0.76972,-1.90283 1.98304,-3.55706 3.13332,-5.30221 1.27043,-1.76221 2.76202,-3.43084 4.33898,-5.00255 1.36986,-1.46721 2.75424,-2.93277 3.97274,-4.48973 1.58819,-1.96871 2.57097,-4.02747 2.75352,-6.44627 0.41305,-2.41925 0.84969,-4.87129 0.49579,-7.32466 -0.5846,-2.47196 -2.13524,-4.53111 -3.93024,-6.53481 -6.09708,-6.34505 -14.41454,-11.56046 -23.09466,-15.27718 -2.51621,-0.98053 -4.98763,-2.0114 -7.72066,-2.50553 -3.00144,-0.5867 -6.03959,-0.56245 -9.01017,0.11628 -2.77782,0.6949 -5.43284,1.57901 -7.98624,2.73066 -2.46091,1.15716 -4.56784,2.62745 -6.73493,4.1205 -1.85845,0.9961 -3.77014,1.90671 -5.92099,2.39279 -2.3746,0.64684 -4.68781,1.4753 -6.86484,2.4954 -2.27794,0.96959 -4.37126,2.17606 -6.44441,3.42099 -1.95559,1.03864 -4.04105,1.88446 -6.07858,2.80358 -2.11159,1.15037 -4.27642,2.22146 -6.50333,3.2116 -1.96295,0.91278 -4.00351,1.6931 -5.87613,2.73996 -2.14534,1.02601 -4.43408,1.81503 -6.58157,2.83816 -2.23136,1.01969 -4.60684,1.77616 -6.9266,2.64217 -2.3126,0.81507 -4.6948,1.51276 -7.10722,2.09643 -2.94002,0.80491 -5.96521,1.2997 -9.04509,1.59924 -3.13178,0.37872 -6.17737,1.16531 -9.3464,1.31452 0,0 15.89668,12.96446 15.89668,12.96446 z"
       inkscape:connector-curvature="0" />
    <path
       style="fill:#ff2a2a;fill-opacity:1;stroke:#f5f0b9;stroke-width:0;stroke-miterlimit:4;stroke-opacity:1;stroke-dasharray:none"
       id="path11802-3"
       d="m 358.10906,506.4049 c 1.44441,2.36087 3.04746,4.59621 4.51676,6.9355 1.03407,2.05342 1.98486,4.14015 2.50539,6.43217 0.45729,2.62086 0.46215,5.30443 0.48877,7.9647 -0.0563,2.27192 -0.83163,4.31588 -1.50698,6.4106 -0.79648,1.92091 -1.73879,3.7604 -2.48981,5.70363 -0.73089,1.82184 -1.90199,3.28213 -2.98895,4.82858 -1.26133,1.30867 -2.24612,2.94044 -3.75923,3.90251 -0.97851,0.87279 -0.48102,0.48366 -1.48531,1.17884 0,0 15.85471,11.41519 15.85471,11.41519 l 0,0 c 1.03672,-0.81026 0.53965,-0.41241 1.49272,-1.19111 1.52221,-1.28327 2.7645,-2.90077 4.06601,-4.45229 1.21403,-1.67709 2.4093,-3.35766 3.22908,-5.33285 0.74766,-1.99063 1.74029,-3.85428 2.53892,-5.82109 0.73285,-2.33236 1.60329,-4.58849 1.75346,-7.10023 -0.007,-2.77148 0.004,-5.55319 -0.28882,-8.30953 -0.36443,-2.58238 -1.1905,-4.81594 -2.25169,-7.11968 -1.22893,-2.5343 -3.15467,-4.4943 -4.34009,-7.05588 0,0 -17.33494,-8.38906 -17.33494,-8.38906 z"
       inkscape:connector-curvature="0" />
    <path
       style="fill:#ff2a2a;fill-opacity:1;stroke:#f5f0b9;stroke-width:0;stroke-miterlimit:4;stroke-opacity:1;stroke-dasharray:none"
       d="m 256.5906,552.61629 c -3.96424,-9.48776 -2.25479,-15.58 7.76758,-27.68268 2.92797,-3.53571 6.12903,-7.94269 7.11347,-9.79328 2.86109,-5.37841 0.1,-16.87131 -6.68105,-27.80956 -2.16475,-3.49188 -3.22626,-7.09648 -2.94487,-10 0.3772,-3.89222 1.05806,-4.60058 4.7717,-4.96447 2.85725,-0.27997 6.01802,0.79145 9.28572,3.1476 2.7247,1.96463 7.84685,5.34755 11.38256,7.51761 3.53572,2.17005 11.8722,7.79537 18.52553,12.50071 10.46582,7.40159 28.32619,17.66375 33.99848,19.53475 1.35699,0.4476 1.08895,2.01066 -1.07143,6.24813 -3.71297,7.28278 -3.7503,17.74294 -0.0889,24.91982 l 2.79222,5.47319 -8.14936,1.70545 c -8.22777,1.72186 -45.12554,4.20215 -64.20162,4.31567 l -10.33797,0.0615 -2.16203,-5.17446 z"
       id="path11922"
       inkscape:connector-curvature="0" />
    <path
       style="fill:#ff7f2a;fill-opacity:1;stroke:#f5f0b9;stroke-width:0;stroke-miterlimit:4;stroke-opacity:1;stroke-dasharray:none"
       d="m 437.28571,567.6357 c -7.46428,-1.46271 -19.35714,-3.66126 -26.42857,-4.88567 -7.07143,-1.22441 -17.78473,-3.5397 -23.80735,-5.1451 l -10.95021,-2.9189 3.09307,-5.23335 c 4.08657,-6.91433 4.38693,-23.38432 0.53369,-29.2651 -2.81754,-4.30012 -2.20942,-6.68254 1.70576,-6.68254 5.50004,0 30.92163,-10.70279 66.49125,-27.9936 3.88641,-1.88924 9.51141,-3.43497 12.5,-3.43497 5.21429,0 5.43379,0.19385 5.43379,4.79887 0,3.53268 -1.45398,6.45389 -5.51064,11.07143 -7.13043,8.11631 -11.63221,17.06402 -11.63221,23.12011 0,2.88416 2.36041,9.29873 5.87982,15.97879 4.00846,7.60829 5.85601,12.88631 5.80498,16.58349 -0.0777,5.63207 -5.6156,17.12049 -8.11338,16.83137 -0.78571,-0.0909 -7.53571,-1.36212 -15,-2.82483 z"
       id="path11924"
       inkscape:connector-curvature="0" />
    <path
       style="fill:#ffd42a;fill-opacity:1;stroke:#f5f0b9;stroke-width:0;stroke-miterlimit:4;stroke-opacity:1;stroke-dasharray:none"
       d="m 257.42291,551.97105 c -3.00788,-10.03941 -1.84154,-13.67079 9.31556,-29.00393 8.0152,-11.01523 8.22654,-16.15668 1.26153,-30.69022 -2.75,-5.73829 -5,-12.30944 -5,-14.60255 0,-7.94275 5.87603,-5.71009 34.46636,13.0959 14.43636,9.49586 29.91407,19.13269 34.39492,21.41516 l 8.14699,4.14996 -2.07556,4.96752 c -2.69182,6.44243 -2.65121,18.05908 0.086,24.61023 1.18888,2.84541 1.91515,5.41992 1.61393,5.72114 -1.0368,1.0368 -44.5189,4.55088 -62.56692,5.05646 l -18.07708,0.5064 -1.56577,-5.22607 z"
       id="path11926"
       inkscape:connector-curvature="0" />
    <path
       style="fill:#ff5555;fill-opacity:1;stroke:#f5f0b9;stroke-width:0;stroke-miterlimit:4;stroke-opacity:1;stroke-dasharray:none"
       d="m 440.14286,567.60739 c -3.53572,-0.7512 -14.78572,-2.97236 -25,-4.93592 -10.21429,-1.96355 -22.81751,-4.59061 -28.00716,-5.83789 l -9.43573,-2.2678 2.65002,-6.97426 c 3.2029,-8.42936 3.41499,-19.49026 0.50715,-26.44968 -1.17857,-2.82072 -2.14285,-5.32589 -2.14285,-5.56704 0,-0.24115 3.69642,-1.50691 8.21428,-2.81281 4.51786,-1.3059 21.39286,-8.35598 37.5,-15.66685 34.24034,-15.54135 40,-16.95122 40,-9.79134 0,2.2296 -2.40414,6.98302 -5.82016,11.50751 -11.54855,15.29594 -12.22144,20.92361 -4.61803,38.62261 5.83624,13.58543 6.34604,19.44962 2.29595,26.41046 -3.03636,5.21855 -6.0196,5.91393 -16.14347,3.76301 z"
       id="path11928"
       inkscape:connector-curvature="0" />
    <path
       style="fill:#aa0000;fill-opacity:1;stroke:#f5f0b9;stroke-width:0;stroke-miterlimit:4;stroke-opacity:1;stroke-dasharray:none"
       d="m 257.92973,551.49001 c -1.59042,-8.47767 0.0573,-13.92535 7.79834,-25.78351 8.84482,-13.54891 9.27399,-18.38203 2.98622,-33.63003 -4.14757,-10.05794 -5.24157,-15.71081 -3.39744,-17.55495 1.38213,-1.38213 12.28597,4.61839 42.224,23.2364 15.1811,9.4409 28.43471,17.64976 29.45246,18.24191 1.46191,0.85057 1.50368,2.06263 0.19892,5.77247 -1.68874,4.80165 -1.22311,21.86168 0.71825,26.31578 0.79959,1.83451 0.23353,2.62576 -2.28059,3.18786 -5.11518,1.14364 -33.86827,3.45218 -56.45477,4.53267 l -20.25345,0.96889 -0.99194,-5.28749 z"
       id="path11930"
       inkscape:connector-curvature="0" />
    <path
       style="fill:#aa0000;fill-opacity:1;stroke:#f5f0b9;stroke-width:0;stroke-miterlimit:4;stroke-opacity:1;stroke-dasharray:none"
       d="m 410.14286,561.10111 c -16.89286,-3.54726 -30.87313,-6.59851 -31.06727,-6.78056 -0.19413,-0.18204 0.68026,-3.36336 1.9431,-7.06959 2.25441,-6.61633 2.21095,-21.75422 -0.0825,-28.74592 -0.80028,-2.43969 0.16911,-3.24416 6.63474,-5.50599 4.16458,-1.45687 20.96143,-8.39369 37.32634,-15.41516 31.90919,-13.69085 37.99606,-15.67438 38.27203,-12.47171 0.35738,4.14742 -0.64151,6.47935 -6.94312,16.20882 -8.88854,13.72362 -9.18722,17.94741 -2.6151,36.981 4.67514,13.5397 5.06601,15.75028 3.68913,20.86366 -2.85651,10.60827 -5.3651,10.71123 -47.15731,1.93545 z"
       id="path11932"
       inkscape:connector-curvature="0" />
  </g>
</svg>
