<?xml version="1.0" encoding="UTF-8" standalone="no"?>
<!-- Created with Inkscape (http://www.inkscape.org/) -->

<svg
   xmlns:dc="http://purl.org/dc/elements/1.1/"
   xmlns:cc="http://creativecommons.org/ns#"
   xmlns:rdf="http://www.w3.org/1999/02/22-rdf-syntax-ns#"
   xmlns:svg="http://www.w3.org/2000/svg"
   xmlns="http://www.w3.org/2000/svg"
   xmlns:sodipodi="http://sodipodi.sourceforge.net/DTD/sodipodi-0.dtd"
   xmlns:inkscape="http://www.inkscape.org/namespaces/inkscape"
   width="956.69287"
   height="956.69287"
   id="svg1878"
   sodipodi:version="0.32"
   inkscape:version="0.48.4 r9939"
   version="1.0"
   sodipodi:docname="LogoAna.svg"
   inkscape:export-filename="/mnt/data/home/mdupont/Desktop/flosokaks/poverty/logo2s2.png"
   inkscape:export-xdpi="61"
   inkscape:export-ydpi="61">
  <defs
     id="defs1880" />
  <sodipodi:namedview
     pagecolor="#ffffff"
     bordercolor="#666666"
     borderopacity="1.0"
     inkscape:pageopacity="0.0"
     inkscape:pageshadow="2"
     inkscape:zoom="0.25"
     inkscape:cx="43.009292"
     inkscape:cy="821.90834"
     inkscape:document-units="mm"
     inkscape:current-layer="layer1"
     id="namedview1882"
     width="269.99999mm"
     height="189mm"
     units="mm"
     showguides="true"
     inkscape:guide-bbox="true"
     inkscape:window-width="1024"
     inkscape:window-height="719"
     inkscape:window-x="-4"
     inkscape:window-y="-4"
     showgrid="false"
     inkscape:window-maximized="0">
    <sodipodi:guide
       orientation="vertical"
       position="-154,470"
       id="guide1887" />
    <sodipodi:guide
       orientation="vertical"
       position="946.063"
       id="guide1889" />
    <sodipodi:guide
       orientation="horizontal"
       position="787.37432,10.629921"
       id="guide1891" />
    <sodipodi:guide
       orientation="horizontal"
       position="10.629921"
       id="guide1893" />
    <sodipodi:guide
       orientation="vertical"
       position="-245.12597,1110.4949"
       id="guide1895" />
    <sodipodi:guide
       orientation="vertical"
       position="946.063,1155.0633"
       id="guide1897" />
  </sodipodi:namedview>
  <metadata
     id="metadata1884">
    <rdf:RDF>
      <cc:Work
         rdf:about="">
        <dc:format>image/svg+xml</dc:format>
        <dc:type
           rdf:resource="http://purl.org/dc/dcmitype/StillImage" />
        <dc:title></dc:title>
      </cc:Work>
    </rdf:RDF>
  </metadata>
  <g
     inkscape:label="Layer 1"
     inkscape:groupmode="layer"
     id="layer1"
     transform="translate(0,287.00789)">
    <g
       id="g12119"
       transform="matrix(1.4175175,0,0,1.4175175,-199.71801,-140.01368)">
      <path
         d="M 322.21803,40.79098 V 282.44489 H 634.47487 V 40.79098 H 322.21803 z m 286.23533,214.80349 h -260.214 V 67.64142 h 260.214 v 187.95305 z m 26.02151,53.70085 52.04281,107.40133 -416.34248,0 52.04283,-107.40133 z"
         id="path11"
         inkscape:connector-curvature="0" />
      <text
         sodipodi:linespacing="125%"
         id="text2985"
         y="362.39127"
         x="392.6174"
         style="font-size:25.16356468px;font-style:normal;font-weight:normal;line-height:125%;letter-spacing:0px;word-spacing:0px;fill:#f9f9f9;fill-opacity:1;stroke:none;font-family:Sans"
         xml:space="preserve"><tspan
           style="font-size:45.75193787px;fill:#f9f9f9"
           y="362.39127"
           x="392.6174"
           id="tspan2987"
           sodipodi:role="line">against </tspan><tspan
           id="tspan3039"
           style="font-size:45.75193787px;fill:#f9f9f9"
           y="419.58118"
           x="392.6174"
           sodipodi:role="line" /><tspan
           style="font-size:45.75193787px;fill:#f9f9f9"
           id="tspan2989"
           y="476.77112"
           x="392.6174"
           sodipodi:role="line" /><tspan
           style="font-size:45.75193787px;fill:#f9f9f9"
           id="tspan2991"
           y="533.96106"
           x="392.6174"
           sodipodi:role="line" /></text>
      <text
         sodipodi:linespacing="125%"
         id="text3041"
         y="502.36237"
         x="334.48923"
         style="font-size:42.63517761px;font-style:normal;font-weight:normal;line-height:125%;letter-spacing:0px;word-spacing:0px;fill:#000000;fill-opacity:1;stroke:none;font-family:Sans"
         xml:space="preserve"><tspan
           style="font-size:69.7666626px;font-style:normal;font-variant:normal;font-weight:bold;font-stretch:normal;font-family:Century Schoolbook L;-inkscape-font-specification:Century Schoolbook L Bold"
           y="502.36237"
           x="334.48923"
           id="tspan3043"
           sodipodi:role="line">Poverty</tspan></text>
      <text
         sodipodi:linespacing="125%"
         id="text3067"
         y="-9.2521992"
         x="305.31384"
         style="font-size:58.2674942px;font-style:normal;font-weight:normal;line-height:125%;letter-spacing:0px;word-spacing:0px;fill:#000000;fill-opacity:1;stroke:none;font-family:Sans"
         xml:space="preserve"><tspan
           style="font-style:normal;font-variant:normal;font-weight:bold;font-stretch:normal;font-family:Bitstream Charter;-inkscape-font-specification:Bitstream Charter Bold"
           y="-9.2521992"
           x="305.31384"
           id="tspan3069"
           sodipodi:role="line">Open Source</tspan></text>
      <rect
         ry="0.11369832"
         y="28.256409"
         x="462.66809"
         height="264.85715"
         width="31.356714"
         id="rect11918"
         style="fill:#aa0000;fill-opacity:1;stroke:#f5f0b9;stroke-width:0;stroke-miterlimit:4;stroke-opacity:1;stroke-dasharray:none" />
      <rect
         ry="0.054377459"
         y="148.15793"
         x="297.77499"
         height="29.52799"
         width="361.14288"
         id="rect11920"
         style="fill:#aa0000;fill-opacity:1;stroke:#f5f0b9;stroke-width:0;stroke-miterlimit:4;stroke-opacity:1;stroke-dasharray:none" />
      <path
         inkscape:connector-curvature="0"
         d="m 516.06166,156.00898 c -2.13157,-0.64467 -4.2385,-1.31077 -6.49212,-1.72304 -2.2706,-0.46298 -4.39144,-1.1417 -6.48919,-1.88916 -1.70656,-0.55365 -3.41267,-1.19438 -4.94658,-1.962 -1.59115,-0.73224 -3.25768,-1.3886 -4.70733,-2.25722 -1.42976,-0.78627 -2.99956,-1.43243 -4.36211,-2.27651 -1.20103,-0.79472 -2.61836,-1.36879 -3.84787,-2.13879 -1.51678,-0.75058 -2.84198,-1.66116 -4.24066,-2.51073 -1.40645,-0.67648 -2.82217,-1.36993 -4.04474,-2.20706 -1.2342,-0.89978 -2.50251,-1.79387 -4.00124,-2.48045 -1.364,-0.74569 -2.85551,-1.45048 -4.46933,-1.90547 -1.57318,-0.57915 -2.92513,-1.37709 -4.19479,-2.24111 -1.24682,-1.11487 -2.58358,-2.10545 -4.16894,-2.98585 -1.63003,-0.82166 -3.33157,-1.52347 -5.17373,-2.08929 -2.02509,-0.56939 -3.83863,-0.58345 -5.94539,-0.34645 -2.0205,0.0821 -3.82465,0.69498 -5.79291,0.96521 -0.80609,0.24116 -1.56485,0.52502 -2.34371,0.80076 -0.28402,0.10055 -1.14952,0.38071 -0.8741,0.26909 15.28888,-6.19577 16.94568,-6.9493 12.09192,-4.78125 -1.57616,0.84842 -3.00907,1.86718 -4.00448,3.07592 -0.82447,1.2631 -0.87406,2.66451 -0.93722,4.02792 -0.17241,1.28843 0.0507,2.45865 0.82261,3.62396 0.64741,1.01419 1.43118,1.9849 2.19841,2.95856 0.90336,1.13227 1.77906,2.28841 2.50343,3.48365 0.64561,1.20825 1.32669,2.37967 1.68931,3.65001 0.11419,1.31005 0.6186,2.56754 0.97633,3.84923 0.38295,1.36994 0.46699,2.72546 0.005,4.08465 -0.54,1.0832 -1.39522,2.0596 -2.09749,3.08968 -0.7976,1.05197 -1.87438,1.97585 -2.80311,2.97055 -1.03142,0.92324 -1.97101,1.88289 -2.92605,2.84307 -0.72467,0.98432 -1.58493,1.90313 -2.45863,2.82371 -0.74384,1.0125 -1.29201,2.08985 -2.02287,3.1062 -0.86413,1.11909 -1.05883,2.37406 -1.1963,3.61973 -0.24152,1.49073 -0.0917,2.88037 0.5695,4.30005 0.57418,1.40943 1.18059,2.80532 1.79702,4.20598 0.26965,0.99179 0.78252,2.02779 2.47964,1.87685 1.67086,-0.26509 3.3862,-0.33958 5.09197,-0.40595 2.13485,-0.0686 4.27245,-0.073 6.40911,-0.0779 2.16791,-0.002 4.33583,-2.4e-4 6.50374,5.3e-4 1.81753,-0.38023 3.68043,-0.56685 5.56628,-0.66917 2.1051,-0.0888 4.21513,-0.088 6.32323,-0.0912 2.16373,-3e-4 4.32746,0.002 6.49119,0.004 2.17851,0.0726 4.27872,0.004 6.41146,-0.28576 2.08135,-0.38898 4.30831,-0.1787 6.3604,-0.59991 1.16797,-0.35287 2.48607,-0.28609 3.69241,-0.49067 0.55716,-0.0945 1.07145,-0.28609 1.61526,-0.41301 1.89592,-0.28197 3.78465,-0.43728 5.67146,-0.74879 1.89752,-0.37332 3.67764,-0.87841 5.65568,-1.07971 1.91779,-0.004 3.67681,-0.50378 5.55438,-0.71173 2.06839,-0.39706 3.96774,-1.08226 5.9346,-1.66232 1.18535,-0.55145 0.58356,-0.29633 1.80344,-0.7676 0,0 -12.40529,6.99607 -12.40529,6.99607 l 0,0 c -1.20519,0.47051 -0.58173,0.24695 -1.87258,0.66764 -1.99792,0.6245 -4.03958,1.20798 -6.19978,1.49448 -1.84014,0.2896 -3.6664,0.55997 -5.54346,0.70853 -1.89094,0.3218 -3.67801,0.87648 -5.60682,1.09791 -1.87922,0.28374 -3.81672,0.37842 -5.63917,0.8361 -1.76735,0.34384 -3.61243,0.47441 -5.39114,0.79543 -2.12736,0.14254 -4.25664,0.27159 -6.35648,0.56367 -2.18039,0.20769 -4.37424,0.13469 -6.57015,0.14003 -2.16207,-0.002 -4.32418,-0.006 -6.48622,0.003 -2.08544,0.0143 -4.17567,0.0287 -6.25094,0.18866 -1.88676,0.17206 -3.73678,0.5357 -5.6431,0.56489 -2.16581,-0.001 -4.33164,-0.004 -6.49742,0.006 -2.12255,0.0134 -4.24709,0.0304 -6.36444,0.14508 -1.79158,0.10952 -3.6146,0.39246 -5.40472,0.19988 -1.88492,-0.55254 -3.0448,-1.48828 -3.34129,-2.93411 -0.5785,-1.39941 -1.18791,-2.78504 -1.72418,-4.19255 -0.75728,-1.54459 -1.16304,-3.02202 -0.88166,-4.66601 0.0834,-1.34928 0.17398,-2.72424 0.87245,-3.99982 0.70508,-1.0373 1.47647,-2.05361 1.99538,-3.14419 0.65054,-1.04452 1.87842,-1.81069 2.41533,-2.89668 0.85422,-1.03918 1.8556,-1.98792 2.89819,-2.93224 1.07654,-0.86944 1.87892,-1.92826 2.84785,-2.84703 0.92202,-0.88801 1.45061,-1.96831 2.20657,-2.92781 0.94692,-1.08337 0.68713,-2.33382 0.42083,-3.53806 -0.33317,-1.28651 -0.91467,-2.53583 -0.97581,-3.85161 -0.29641,-1.20529 -0.94483,-2.29954 -1.53575,-3.44286 -0.67488,-1.16379 -1.52118,-2.29041 -2.44182,-3.36627 -0.78602,-0.99559 -1.58269,-1.99144 -2.24793,-3.02788 -0.87524,-1.31458 -1.30364,-2.63143 -1.10894,-4.09563 0.0293,-1.48414 0.046,-2.98993 0.63054,-4.42906 0.75272,-1.43057 2.1435,-2.53149 3.70228,-3.57835 5.23262,-3.27982 11.90744,-5.69364 18.64082,-7.17894 1.93883,-0.37254 3.85228,-0.77906 5.88129,-0.84179 2.23421,-0.0953 4.41249,0.17848 6.4541,0.83844 1.90104,0.6532 3.68839,1.40924 5.36675,2.31684 1.61122,0.903 2.92607,1.96334 4.28106,3.04244 1.2003,0.75514 2.45034,1.46362 3.92929,1.93827 1.61796,0.59 3.16738,1.28355 4.59321,2.08024 1.50509,0.77506 2.84572,1.67623 4.16666,2.59872 1.26432,0.7889 2.64787,1.47341 3.98713,2.19773 1.36128,0.86914 2.77149,1.69533 4.23716,2.47834 1.28656,0.71415 2.64669,1.35561 3.85033,2.14235 1.40227,0.79754 2.93944,1.46538 4.34365,2.26136 1.46488,0.80109 3.06872,1.45684 4.61778,2.17343 1.55079,0.68547 3.16736,1.30658 4.82099,1.86199 2.00267,0.73292 4.10827,1.28738 6.27944,1.72957 2.19778,0.49404 4.27872,1.22499 6.53416,1.58476 0,0 -13.16081,6.40803 -13.16081,6.40803 z"
         id="path11776"
         style="fill:#ff2a2a;fill-opacity:1;stroke:#f5f0b9;stroke-width:0;stroke-miterlimit:4;stroke-opacity:1;stroke-dasharray:none" />
      <path
         inkscape:connector-curvature="0"
         d="m 486.63209,148.64319 c -1.22772,1.47873 -2.59027,2.87884 -3.83914,4.34406 -0.87893,1.28616 -1.68708,2.59319 -2.12953,4.0288 -0.38868,1.64158 -0.39282,3.32243 -0.41544,4.9887 0.0478,1.42302 0.70686,2.70325 1.2809,4.01528 0.67699,1.20317 1.47794,2.35534 2.11628,3.57248 0.62124,1.14111 1.61666,2.05577 2.54054,3.02439 1.07211,0.81969 1.90916,1.84175 3.19526,2.44434 0.83172,0.54667 0.40886,0.30294 1.26248,0.73837 0,0 -13.47614,7.14992 -13.47614,7.14992 l 0,0 c -0.88119,-0.50751 -0.45869,-0.25831 -1.26878,-0.74605 -1.29384,-0.80378 -2.34976,-1.81691 -3.45602,-2.7887 -1.03189,-1.05045 -2.04785,-2.10308 -2.74464,-3.34024 -0.63549,-1.24683 -1.47921,-2.41413 -2.15803,-3.64605 -0.6229,-1.46087 -1.36276,-2.87401 -1.4904,-4.44724 0.006,-1.73592 -0.004,-3.47825 0.24549,-5.20468 0.30976,-1.61748 1.0119,-3.01647 1.91388,-4.45942 1.04457,-1.58737 2.68141,-2.81501 3.68899,-4.41946 0,0 14.7343,-5.2545 14.7343,-5.2545 z"
         id="path11802"
         style="fill:#ff2a2a;fill-opacity:1;stroke:#f5f0b9;stroke-width:0;stroke-miterlimit:4;stroke-opacity:1;stroke-dasharray:none" />
      <path
         inkscape:connector-curvature="0"
         d="m 516.4011,177.89161 c 0.0292,2.09454 -0.35681,4.15865 -0.68051,6.2291 -0.39584,1.96119 -0.97474,3.89243 -1.79488,5.76124 -0.65394,1.40038 -1.60072,2.68996 -2.27202,4.08071 -0.69318,1.28579 -1.13598,2.64716 -1.74858,3.95678 -0.50255,1.41 -1.43461,2.66084 -2.19187,3.97805 -0.7654,1.5198 -1.56488,3.02396 -2.6886,4.38768 -1.19367,1.3291 -2.14075,2.78961 -3.22601,4.17651 -1.12775,1.32673 -1.93524,2.8037 -2.88205,4.2177 -1.0133,1.30184 -2.15662,2.54103 -3.02388,3.91433 -0.73462,1.47432 -1.7647,2.81288 -2.80025,4.14943 -1.18154,1.57454 -2.22031,3.21739 -3.24671,4.8634 -0.98766,1.50827 -2.02786,3.00269 -3.18165,4.42901 -0.90153,1.30903 -1.87041,2.58494 -2.79057,3.88549 -0.96728,1.16332 -1.68327,2.44682 -2.70196,3.58197 -0.9486,1.13279 -1.73179,2.33862 -2.45532,3.57782 -0.87163,1.49886 -1.94131,2.91276 -2.91896,4.36567 -1.01369,1.44595 -2.04852,2.89083 -3.18395,4.27452 -1.037,1.27842 -2.38404,2.36009 -3.61406,3.50997 -1.18396,0.89176 -2.1518,1.91037 -3.10872,2.96162 -0.87961,1.05334 -1.86195,2.05834 -2.95843,2.96303 -1.36276,1.22559 -2.78332,2.40849 -4.20091,3.59249 -1.16026,0.91151 -2.38949,1.75371 -3.67069,2.54478 0,0 -14.77031,4.84532 -14.77031,4.84532 l 0,0 c 1.27769,-0.76102 2.57457,-1.48435 3.71019,-2.39505 1.50704,-1.05825 2.7613,-2.31975 4.179,-3.43623 0.92822,-0.99715 2.11745,-1.80249 3.04897,-2.80142 0.84043,-1.18955 1.82497,-2.25185 2.99939,-3.22268 1.38714,-0.97747 2.41616,-2.23817 3.76893,-3.25431 1.06214,-1.40483 2.18958,-2.77582 3.28239,-4.16876 0.86319,-1.47394 1.8707,-2.8918 2.92929,-4.27313 0.6374,-1.33317 1.40851,-2.58389 2.28802,-3.80195 0.94173,-1.18344 2.04768,-2.2592 2.73985,-3.57899 1.12197,-1.16494 1.91076,-2.57901 2.81505,-3.85804 1.08711,-1.44365 2.23954,-2.85071 3.31231,-4.30755 0.9481,-1.68484 2.02245,-3.32605 3.14698,-4.93262 0.89279,-1.38383 2.10221,-2.59147 2.89914,-4.01878 0.67568,-1.52243 1.78235,-2.77065 2.85727,-4.11886 1.2724,-1.25432 1.7674,-2.86327 2.93503,-4.17903 1.02804,-1.41672 2.08856,-2.82064 3.18051,-4.20512 1.06092,-1.34247 2.22851,-2.60176 2.83914,-4.15878 0.59638,-1.37693 1.62878,-2.5609 2.17337,-3.94025 0.1957,-0.4143 0.47658,-0.80045 0.64726,-1.22225 0.36261,-0.89609 0.43716,-1.88232 1.15209,-2.67324 0.48613,-1.52154 1.49295,-2.79062 2.24415,-4.22345 1.11309,-1.68175 1.45383,-3.59566 2.04495,-5.43256 0.30882,-1.99855 0.86429,-3.99227 0.62211,-6.01586 0,0 14.2955,-6.02771 14.2955,-6.02771 z"
         id="path11824"
         style="fill:#ff2a2a;fill-opacity:1;stroke:#f5f0b9;stroke-width:0;stroke-miterlimit:4;stroke-opacity:1;stroke-dasharray:none" />
      <path
         inkscape:connector-curvature="0"
         d="m 505.45056,178.00958 c -0.57048,2.00769 -1.12826,4.02375 -1.93097,5.97795 -0.72278,1.659 -1.42604,3.31327 -2.01998,5.00701 -0.73148,1.43465 -1.10346,2.93391 -1.29923,4.47442 0.0151,1.62262 -0.36039,3.19088 -0.73276,4.77324 -0.14637,1.59179 -0.9242,3.02584 -1.62587,4.48561 -0.8752,1.60437 -1.50038,3.25377 -1.83779,4.98963 -0.17552,1.67977 -0.27638,3.34045 -0.69127,4.99429 -0.49103,1.69194 -1.2963,3.31191 -2.29712,4.83849 -0.95271,1.39675 -1.92954,2.78472 -3.1395,4.04091 -1.0419,1.11353 -2.25731,2.10035 -3.37728,3.15962 -1.4639,1.3868 -3.007,2.719 -4.92505,3.66744 -6.54664,2.57179 -12.37268,6.17938 -18.91919,8.68351 24.20275,-10.91697 13.76459,-6.92367 8.8021,-3.92876 -1.75552,1.27679 -3.58693,2.47758 -5.45513,3.63923 0,0 -14.7592,4.91057 -14.7592,4.91057 l 0,0 c 1.74875,-1.26019 3.77977,-2.25213 5.42391,-3.61778 5.14283,-3.9363 14.681,-4.89852 18.44462,-9.25126 5.3678,-2.41265 15.74736,-5.93312 -8.39263,4.31659 0.30772,-0.15801 0.61544,-0.31602 0.92315,-0.47402 0.33336,-0.11624 0.68845,-0.19671 1.00009,-0.34871 1.22663,-0.59826 2.10068,-1.70142 3.16209,-2.4608 1.10415,-1.05539 2.13644,-2.13741 3.39046,-3.06385 1.10861,-1.28295 2.40823,-2.44166 3.26479,-3.87461 0.96035,-1.44791 1.92944,-2.87054 2.47973,-4.47736 0.40683,-1.64307 0.8211,-3.2356 0.77688,-4.93079 0.25235,-1.80492 0.66931,-3.5923 1.67119,-5.22889 0.56287,-1.43475 1.57634,-2.75308 1.72966,-4.27685 0.30083,-1.56538 0.93187,-3.06955 0.81521,-4.67381 0.12775,-1.6267 0.31909,-3.2659 1.11135,-4.77926 0.8468,-1.61083 1.15858,-3.41671 2.06192,-5.02252 0.84432,-1.86523 1.59655,-3.77538 1.91246,-5.75746 0,0 14.43336,-5.79178 14.43336,-5.79178 z"
         id="path11840"
         style="fill:#ff2a2a;fill-opacity:1;stroke:#f5f0b9;stroke-width:0;stroke-miterlimit:4;stroke-opacity:1;stroke-dasharray:none" />
      <path
         inkscape:connector-curvature="0"
         d="m 451.51121,180.23451 c 0.53452,1.95926 1.05592,3.92711 1.82775,5.82691 0.69725,1.61159 1.37478,3.21912 1.94025,4.86868 0.71119,1.39054 1.0554,2.85522 1.21952,4.36564 -0.0521,1.59745 0.29408,3.12991 0.63681,4.67636 0.11273,1.56235 0.87106,2.95094 1.55137,4.36707 0.85346,1.55337 1.45171,3.15838 1.75541,4.85693 0.14036,1.64809 0.20527,3.27958 0.5896,4.89512 0.46089,1.65082 1.2429,3.22158 2.22586,4.6947 0.93697,1.34675 1.89868,2.68416 3.10038,3.88502 1.03409,1.06538 2.24745,2.001 3.36215,3.01069 1.45694,1.32196 2.99565,2.58787 4.92427,3.46508 6.59784,2.3392 12.43952,5.71896 19.03874,7.99156 -24.36003,-10.03479 -13.83782,-6.41067 -8.86023,-3.6086 1.75593,1.20515 3.59075,2.33328 5.46387,3.42178 0,0 14.89471,4.40022 14.89471,4.40022 l 0,0 c -1.74943,-1.18901 -3.79193,-2.10571 -5.4326,-3.40159 -5.13961,-3.72332 -14.81549,-4.39064 -18.54337,-8.56427 -5.4029,-2.21711 -15.87624,-5.37762 8.43513,4.00231 -0.30928,-0.14649 -0.61857,-0.29297 -0.92785,-0.43946 -0.33631,-0.10463 -0.6955,-0.17342 -1.00891,-0.31387 -1.23358,-0.55283 -2.09723,-1.61295 -3.15919,-2.3292 -1.09868,-1.00635 -2.12371,-2.04101 -3.3777,-2.91604 -1.09807,-1.23016 -2.39315,-2.33247 -3.23156,-3.71766 -0.94358,-1.39689 -1.89663,-2.76863 -2.41969,-4.33394 -0.37639,-1.60518 -0.76149,-3.16041 -0.67809,-4.83012 -0.21565,-1.76901 -0.59907,-3.51592 -1.58061,-5.09728 -0.53975,-1.39557 -1.54029,-2.66337 -1.66162,-4.15857 -0.27037,-1.53184 -0.87786,-2.99375 -0.7229,-4.57608 -0.093,-1.59726 -0.25037,-3.20496 -1.02158,-4.67118 -0.82444,-1.56056 -1.10049,-3.32878 -1.98253,-4.88271 -0.81617,-1.81101 -1.53767,-3.66893 -1.81392,-5.61044 0,0 -14.54347,-5.27705 -14.54347,-5.27705 z"
         id="path11840-0"
         style="fill:#ff2a2a;fill-opacity:1;stroke:#f5f0b9;stroke-width:0;stroke-miterlimit:4;stroke-opacity:1;stroke-dasharray:none" />
      <path
         inkscape:connector-curvature="0"
         d="m 440.29178,175.30209 c -0.0292,2.09316 0.3568,4.17543 0.6805,6.2611 0.39584,1.9798 0.97475,3.93827 1.79489,5.84564 0.65394,1.43113 1.60071,2.76524 2.27202,4.18755 0.69317,1.31839 1.13598,2.70059 1.74857,4.03901 0.50255,1.43363 1.43461,2.7283 2.19188,4.08112 0.76539,1.5558 1.56487,3.09755 2.68859,4.51411 1.19367,1.38523 2.14076,2.89028 3.22601,4.32822 1.12775,1.37975 1.93525,2.89469 2.88205,4.35322 1.0133,1.34948 2.15663,2.64245 3.02388,4.05652 0.73463,1.50886 1.7647,2.89587 2.80025,4.28112 1.18155,1.6301 2.22031,3.3218 3.24671,5.01607 0.98766,1.55472 2.02787,3.09805 3.18166,4.57862 0.90152,1.35142 1.87041,2.6729 2.79056,4.01672 0.96729,1.2088 1.68327,2.52598 2.70196,3.70904 0.94861,1.17739 1.7318,2.42005 2.45533,3.69328 0.87163,1.53984 1.9413,3.00404 2.91896,4.50292 1.01369,1.49362 2.04852,2.98717 3.18394,4.42424 1.037,1.32719 2.38404,2.4722 3.61406,3.67992 1.18396,0.94744 2.1518,2.01157 3.10872,3.10781 0.87961,1.09471 1.86195,2.1459 2.95843,3.10216 1.36277,1.28967 2.78333,2.53936 4.20092,3.79002 1.16026,0.96608 2.38949,1.86608 3.67068,2.7174 0,0 14.77031,5.53989 14.77031,5.53989 l 0,0 c -1.27768,-0.82111 -2.57457,-1.60543 -3.71019,-2.56953 -1.50703,-1.12912 -2.76129,-2.4496 -4.179,-3.63274 -0.92821,-1.04079 -2.11744,-1.90207 -3.04896,-2.9448 -0.84044,-1.22907 -1.82498,-2.33767 -2.99939,-3.36372 -1.38715,-1.04271 -2.41617,-2.35178 -3.76893,-3.43155 -1.06214,-1.45477 -2.18958,-2.87878 -3.28239,-4.32311 -0.86319,-1.51453 -1.87071,-2.97976 -2.9293,-4.41087 -0.6374,-1.36315 -1.40851,-2.65012 -2.28802,-3.90955 -0.94172,-1.22772 -2.04768,-2.3555 -2.73985,-3.70782 -1.12196,-1.21771 -1.91076,-2.66887 -2.81504,-3.99043 -1.08712,-1.49476 -2.23954,-2.95601 -3.31232,-4.4633 -0.9481,-1.72944 -2.02244,-3.42116 -3.14698,-5.08061 -0.89278,-1.42582 -2.10221,-2.69032 -2.89913,-4.15511 -0.67569,-1.5542 -1.78235,-2.85447 -2.85728,-4.25322 -1.27239,-1.31414 -1.76739,-2.94638 -2.93503,-4.31704 -1.02803,-1.46507 -2.08856,-2.91886 -3.18051,-4.35469 -1.06091,-1.39236 -2.22851,-2.70655 -2.83914,-4.29229 -0.59637,-1.40498 -1.62877,-2.63749 -2.17336,-4.04246 -0.1957,-0.42348 -0.47659,-0.82285 -0.64727,-1.25268 -0.36261,-0.91313 -0.43715,-1.90287 -1.15208,-2.72742 -0.48614,-1.54439 -1.49295,-2.86081 -2.24416,-4.32898 -1.11308,-1.73408 -1.45382,-3.66402 -2.04494,-5.52871 -0.30883,-2.01308 -0.86429,-4.03293 -0.62212,-6.04512 0,0 -14.29549,-6.69995 -14.29549,-6.69995 z"
         id="path11824-7"
         style="fill:#ff2a2a;fill-opacity:1;stroke:#f5f0b9;stroke-width:0;stroke-miterlimit:4;stroke-opacity:1;stroke-dasharray:none" />
      <path
         inkscape:connector-curvature="0"
         d="m 440.18357,154.78124 c 2.33721,-0.39866 4.65408,-0.82213 7.06294,-0.96929 2.43799,-0.19675 4.77206,-0.63139 7.09829,-1.13886 1.87986,-0.35738 3.77936,-0.80353 5.53137,-1.39977 1.80262,-0.55327 3.6651,-1.02013 5.35393,-1.72945 1.64938,-0.62784 3.41022,-1.09601 5.00396,-1.79088 1.41652,-0.66414 3.00415,-1.07733 4.44421,-1.71284 1.7305,-0.58096 3.30124,-1.34807 4.93336,-2.04416 1.60011,-0.51884 3.21365,-1.05382 4.66208,-1.75855 1.47483,-0.76714 2.98337,-1.52435 4.68057,-2.0423 1.57251,-0.59447 3.26648,-1.13185 5.02836,-1.39996 1.74881,-0.3995 3.32103,-1.04865 4.824,-1.77506 1.53745,-0.98471 3.13854,-1.83193 4.96941,-2.53682 1.86318,-0.63965 3.77209,-1.14857 5.79399,-1.50194 2.2105,-0.33486 4.07562,-0.12967 6.1838,0.36675 2.05538,0.32816 3.76611,1.17085 5.72442,1.68436 0.77189,0.34321 1.48533,0.7242 2.22129,1.09935 0.26837,0.1368 1.09224,0.52694 0.83525,0.37991 -14.26577,-8.16169 -15.79276,-9.12979 -11.31022,-6.33388 1.42227,1.05499 2.65816,2.26616 3.40101,3.61788 0.55481,1.38641 0.28216,2.81991 0.0322,4.21634 -0.12047,1.33328 -0.61973,2.49827 -1.68124,3.59184 -0.89882,0.9547 -1.92761,1.8486 -2.94008,2.74752 -1.18885,1.044 -2.35481,2.11566 -3.37446,3.24546 -0.94177,1.1526 -1.91146,2.26338 -2.57705,3.51347 -0.41969,1.32061 -1.22789,2.54045 -1.89107,3.8027 -0.70944,1.34908 -1.10869,2.71966 -0.94757,4.16015 0.30431,1.16872 0.95688,2.26681 1.44004,3.40106 0.57597,1.1681 1.46813,2.23951 2.19195,3.36514 0.84575,1.06526 1.58881,2.15651 2.3476,3.25016 0.51671,1.09036 1.18776,2.13039 1.8722,3.17387 0.52989,1.12137 0.84392,2.28513 1.35959,3.40885 0.62878,1.24452 0.53893,2.54642 0.39245,3.83191 -0.0962,1.54772 -0.57084,2.94508 -1.57749,4.31115 -0.91489,1.36615 -1.85977,2.71463 -2.816,4.06674 -0.50581,0.97762 -1.27156,1.97082 -2.97905,1.61164 -1.65418,-0.47226 -3.39803,-0.75578 -5.13392,-1.02985 -2.1759,-0.32828 -4.36943,-0.59154 -6.56191,-0.85511 -2.22519,-0.26456 -4.45132,-0.52506 -6.67717,-0.78668 -1.77818,-0.60731 -3.64762,-1.02289 -5.56011,-1.35538 -2.1407,-0.34521 -4.30712,-0.59984 -6.47066,-0.85829 -2.22132,-0.26221 -4.44339,-0.52111 -6.66515,-0.7814 -2.25331,-0.18976 -4.3937,-0.51359 -6.51632,-1.06713 -2.047,-0.64815 -4.38185,-0.70351 -6.39138,-1.38095 -1.11762,-0.50082 -2.48626,-0.59234 -3.67751,-0.94674 -0.5502,-0.16369 -1.03395,-0.42111 -1.56294,-0.61621 -1.88135,-0.51672 -3.78454,-0.90353 -5.6497,-1.44922 -1.8619,-0.60994 -3.57283,-1.33991 -5.55709,-1.78438 -1.96806,-0.2359 -3.65849,-0.9582 -5.53808,-1.3973 -2.03183,-0.65481 -3.82358,-1.58265 -5.70893,-2.41158 -1.08961,-0.7052 -0.53069,-0.37248 -1.67427,-1.00018 0,0 11.12058,8.62784 11.12058,8.62784 l 0,0 c 1.12867,0.62514 0.54021,0.32197 1.76832,0.90674 1.90697,0.87794 3.86832,1.71941 6.01994,2.27272 1.8223,0.51772 3.6348,1.01418 5.52758,1.3927 1.86702,0.55668 3.57366,1.33799 5.50275,1.79702 1.86377,0.51648 3.83103,0.84744 5.59638,1.53423 1.73506,0.56416 3.59915,0.9205 5.35114,1.46279 2.15114,0.40269 4.30737,0.79187 6.39573,1.34356 2.19054,0.47549 4.4597,0.66666 6.71289,0.9379 2.22006,0.26009 4.44077,0.51743 6.65845,0.7878 2.13771,0.26698 4.28032,0.53463 6.37395,0.9488 1.89731,0.40365 3.71266,0.99798 5.66305,1.25846 2.22376,0.26107 4.44792,0.52054 6.66931,0.79194 2.17602,0.27056 4.35322,0.54512 6.50053,0.91817 1.81404,0.3284 3.6203,0.83727 5.5026,0.85779 2.06272,-0.33466 3.46955,-1.14743 4.10775,-2.58429 0.91702,-1.35542 1.86259,-2.69308 2.73812,-4.06188 1.13408,-1.48166 1.89176,-2.93748 1.98246,-4.64614 0.22586,-1.38449 0.45036,-2.79599 0.0278,-4.17985 -0.48437,-1.14195 -1.04166,-2.27055 -1.32261,-3.44423 -0.42671,-1.14271 -1.51041,-2.07176 -1.81088,-3.24296 -0.63706,-1.16192 -1.44607,-2.24953 -2.29843,-3.33761 -0.90447,-1.01594 -1.48377,-2.19159 -2.26639,-3.24474 -0.74156,-1.01614 -1.03481,-2.18053 -1.58939,-3.24939 -0.72201,-1.21815 -0.1666,-2.46043 0.38484,-3.65485 0.63909,-1.27013 1.52453,-2.47231 1.8911,-3.80518 0.58259,-1.19184 1.50093,-2.22797 2.37156,-3.32105 0.96157,-1.10376 2.09054,-2.14891 3.28412,-3.13335 1.03683,-0.91899 2.08464,-1.83695 3.00691,-2.81215 1.20208,-1.23311 1.94593,-2.52261 2.0841,-4.03763 0.31263,-1.5153 0.64312,-3.05114 0.37526,-4.58781 -0.44248,-1.54832 -1.61614,-2.83807 -2.97475,-4.09309 -4.61479,-3.97423 -10.91016,-7.24091 -17.48003,-9.56888 -1.90448,-0.61416 -3.77507,-1.25985 -5.84366,-1.56934 -2.27175,-0.36749 -4.57128,-0.3523 -6.81967,0.0728 -2.1025,0.43525 -4.11204,0.98901 -6.04468,1.71035 -1.86263,0.72479 -3.45733,1.6457 -5.09757,2.58088 -1.40664,0.62391 -2.85357,1.19427 -4.48152,1.49873 -1.7973,0.40515 -3.54814,0.92405 -5.1959,1.56299 -1.72414,0.60731 -3.30855,1.36298 -4.87769,2.14274 -1.48016,0.65056 -3.05861,1.18034 -4.60079,1.75603 -1.59823,0.72054 -3.23676,1.39142 -4.92228,2.01159 -1.48573,0.57172 -3.0302,1.06048 -4.44756,1.71618 -1.62378,0.64264 -3.3561,1.13684 -4.9815,1.77768 -1.68889,0.63869 -3.48686,1.1125 -5.24265,1.65493 -1.75038,0.51052 -3.55343,0.94752 -5.37936,1.3131 -2.22526,0.50416 -4.51498,0.81407 -6.8461,1.00169 -2.3704,0.23721 -4.67557,0.72989 -7.07416,0.82335 0,0 12.03197,8.12031 12.03197,8.12031 z"
         id="path11776-7"
         style="fill:#ff2a2a;fill-opacity:1;stroke:#f5f0b9;stroke-width:0;stroke-miterlimit:4;stroke-opacity:1;stroke-dasharray:none" />
      <path
         inkscape:connector-curvature="0"
         d="m 470.96824,148.90054 c 1.09325,1.47873 2.30658,2.87884 3.41867,4.34406 0.78268,1.28616 1.50232,2.59318 1.8963,4.0288 0.34611,1.64157 0.34979,3.32243 0.36994,4.9887 -0.0426,1.42302 -0.62945,2.70325 -1.14061,4.01528 -0.60285,1.20317 -1.31607,2.35534 -1.8845,3.57248 -0.55321,1.14111 -1.43959,2.05577 -2.2623,3.02439 -0.95468,0.81968 -1.70006,1.84175 -2.84531,2.44434 -0.74062,0.54667 -0.36408,0.30294 -1.12421,0.73837 0,0 12.00021,7.14992 12.00021,7.14992 l 0,0 c 0.78468,-0.50751 0.40846,-0.25832 1.12982,-0.74606 1.15214,-0.80377 2.09241,-1.8169 3.07751,-2.78869 0.91888,-1.05045 1.82356,-2.10308 2.44404,-3.34024 0.5659,-1.24683 1.31721,-2.41413 1.92168,-3.64605 0.55468,-1.46088 1.21351,-2.87401 1.32717,-4.44724 -0.005,-1.73592 0.003,-3.47825 -0.21861,-5.20468 -0.27583,-1.61748 -0.90107,-3.01647 -1.70427,-4.45942 -0.93016,-1.58737 -2.38773,-2.81502 -3.28495,-4.41946 0,0 -13.12058,-5.2545 -13.12058,-5.2545 z"
         id="path11802-3"
         style="fill:#ff2a2a;fill-opacity:1;stroke:#f5f0b9;stroke-width:0;stroke-miterlimit:4;stroke-opacity:1;stroke-dasharray:none" />
      <path
         inkscape:connector-curvature="0"
         id="path11922"
         d="m 446.98322,177.8451 c -3.00048,-5.94267 -1.70662,-9.75855 5.87918,-17.33908 2.21614,-2.2146 4.63898,-4.97492 5.38408,-6.13404 2.16552,-3.36877 0.0757,-10.56736 -5.05679,-17.41855 -1.63847,-2.18714 -2.44191,-4.44489 -2.22893,-6.26351 0.2855,-2.4379 0.80083,-2.88158 3.61163,-3.10951 2.16262,-0.17536 4.55496,0.49573 7.02824,1.97151 2.06228,1.23055 5.93917,3.34944 8.6153,4.70866 2.67614,1.35922 8.9859,4.88264 14.02172,7.82984 7.92143,4.63599 21.4397,11.06371 25.73298,12.23562 1.02709,0.28035 0.82421,1.25938 -0.81095,3.91352 -2.8103,4.56158 -2.83855,11.11332 -0.0673,15.60856 l 2.11339,3.42814 -6.16813,1.06822 c -6.22749,1.07849 -34.1549,2.63202 -48.59333,2.70312 l -7.82466,0.0385 -1.63641,-3.24103 z"
         style="fill:#ff2a2a;fill-opacity:1;stroke:#f5f0b9;stroke-width:0;stroke-miterlimit:4;stroke-opacity:1;stroke-dasharray:none" />
      <path
         inkscape:connector-curvature="0"
         id="path11924"
         d="m 490.68925,187.25253 c -5.64962,-0.91617 -14.65116,-2.29323 -20.00343,-3.06014 -5.35226,-0.76692 -13.46101,-2.2171 -18.01945,-3.22264 l -8.28806,-1.82826 2.3411,-3.27792 c 3.09307,-4.3308 3.3204,-14.6468 0.40394,-18.33023 -2.13256,-2.69339 -1.67228,-4.18562 1.29107,-4.18562 4.1629,0 23.40415,-6.70371 50.32631,-17.53383 2.94157,-1.18333 7.19905,-2.1515 9.46108,-2.1515 3.94662,0 4.11276,0.12142 4.11276,3.00578 0,2.2127 -1.1005,4.0424 -4.17093,6.93461 -5.39692,5.08366 -8.80426,10.68807 -8.80426,14.48131 0,1.8065 1.78656,5.82427 4.45036,10.00833 3.03394,4.76547 4.43233,8.07136 4.3937,10.3871 -0.0588,3.52765 -4.25037,10.72344 -6.1409,10.54234 -0.59469,-0.057 -5.70368,-0.85316 -11.35329,-1.76933 z"
         style="fill:#ff7f2a;fill-opacity:1;stroke:#f5f0b9;stroke-width:0;stroke-miterlimit:4;stroke-opacity:1;stroke-dasharray:none" />
      <path
         inkscape:connector-curvature="0"
         id="path11926"
         d="m 447.63112,177.44096 c -2.27663,-6.2882 -1.39384,-8.56272 7.05082,-18.16665 6.06659,-6.89941 6.22655,-10.11976 0.95483,-19.22287 -2.08144,-3.59418 -3.78443,-7.71003 -3.78443,-9.14632 0,-4.97495 4.44749,-3.57652 26.08711,8.20263 10.92669,5.94775 22.64155,11.98379 26.03304,13.41342 l 6.16635,2.59933 -1.57096,3.11141 c -2.0374,4.03523 -2.00667,11.31133 0.0651,15.41465 0.89985,1.78223 1.44955,3.39478 1.22156,3.58345 -0.78474,0.6494 -33.69574,2.85045 -47.35604,3.16712 l -13.68229,0.31718 -1.18511,-3.27335 z"
         style="fill:#ffd42a;fill-opacity:1;stroke:#f5f0b9;stroke-width:0;stroke-miterlimit:4;stroke-opacity:1;stroke-dasharray:none" />
      <path
         inkscape:connector-curvature="0"
         id="path11928"
         d="m 492.78676,187.2348 c -2.67613,-0.47052 -11.19111,-1.86174 -18.92215,-3.09162 -7.73106,-1.22987 -17.27026,-2.87534 -21.19824,-3.65657 l -7.14177,-1.42044 2.00576,-4.36834 c 2.42423,-5.27974 2.58476,-12.20775 0.38386,-16.56679 -0.89205,-1.76676 -1.6219,-3.33588 -1.6219,-3.48692 0,-0.15105 2.79777,-0.94386 6.21728,-1.76181 3.41951,-0.81795 16.19196,-5.23378 28.38323,-9.81295 25.91605,-9.73435 30.27545,-10.61742 30.27545,-6.13282 0,1.39651 -1.81966,4.37382 -4.4052,7.20774 -8.74093,9.58063 -9.25024,13.10553 -3.49532,24.19132 4.41737,8.50926 4.80323,12.1823 1.73777,16.54223 -2.29818,3.26865 -4.55615,3.7042 -12.21877,2.35697 z"
         style="fill:#ff5555;fill-opacity:1;stroke:#f5f0b9;stroke-width:0;stroke-miterlimit:4;stroke-opacity:1;stroke-dasharray:none" />
      <path
         inkscape:connector-curvature="0"
         id="path11930"
         d="m 448.15832,177.13966 c -1.20377,-5.31 0.0434,-8.72217 5.90246,-16.14954 6.69452,-8.48638 7.01935,-11.51361 2.26023,-21.06421 -3.13924,-6.29981 -3.96728,-9.84049 -2.57148,-10.99557 1.04612,-0.8657 9.29908,2.89273 31.95877,14.55415 11.49036,5.91332 21.52184,11.05495 22.29216,11.42584 1.1065,0.53276 1.13811,1.29193 0.15056,3.6156 -1.27819,3.00752 -0.92576,13.69309 0.54363,16.48292 0.6052,1.14905 0.17676,1.64465 -1.72615,1.99672 -3.87161,0.71632 -25.63442,2.16228 -42.72983,2.83905 l -15.32956,0.60686 -0.75079,-3.31182 z"
         style="fill:#aa0000;fill-opacity:1;stroke:#f5f0b9;stroke-width:0;stroke-miterlimit:4;stroke-opacity:1;stroke-dasharray:none" />
      <path
         inkscape:connector-curvature="0"
         id="path11932"
         d="m 470.0223,183.15958 c -12.78598,-2.22183 -23.36745,-4.13298 -23.51439,-4.24701 -0.14694,-0.11402 0.51488,-2.10665 1.4707,-4.42805 1.70633,-4.14415 1.67344,-13.62578 -0.0624,-18.00504 -0.60572,-1.52811 0.128,-2.03199 5.02174,-3.44869 3.15212,-0.91251 15.86542,-5.2574 28.2518,-9.65531 24.15162,-8.57528 28.75869,-9.81766 28.96757,-7.81167 0.27049,2.59775 -0.48555,4.05835 -5.25515,10.15242 -6.72762,8.59581 -6.95368,11.24138 -1.97934,23.1631 3.53855,8.48061 3.8344,9.86521 2.79226,13.06798 -2.16206,6.64451 -4.06078,6.70899 -35.69272,1.21227 z"
         style="fill:#aa0000;fill-opacity:1;stroke:#f5f0b9;stroke-width:0;stroke-miterlimit:4;stroke-opacity:1;stroke-dasharray:none" />
    </g>
  </g>
</svg>
