<?xml version="1.0" encoding="UTF-8" standalone="no"?>
<!-- Created with Inkscape (http://www.inkscape.org/) -->

<svg
   xmlns:dc="http://purl.org/dc/elements/1.1/"
   xmlns:cc="http://creativecommons.org/ns#"
   xmlns:rdf="http://www.w3.org/1999/02/22-rdf-syntax-ns#"
   xmlns:svg="http://www.w3.org/2000/svg"
   xmlns="http://www.w3.org/2000/svg"
   xmlns:sodipodi="http://sodipodi.sourceforge.net/DTD/sodipodi-0.dtd"
   xmlns:inkscape="http://www.inkscape.org/namespaces/inkscape"
   width="956.69287"
   height="956.69287"
   id="svg1878"
   sodipodi:version="0.32"
   inkscape:version="0.48.4 r9939"
   version="1.0"
   sodipodi:docname="LogoAna_banner.svg"
   inkscape:export-filename="/mnt/data/home/mdupont/Desktop/flosokaks/poverty/logo2s2.png"
   inkscape:export-xdpi="61"
   inkscape:export-ydpi="61">
  <defs
     id="defs1880" />
  <sodipodi:namedview
     pagecolor="#ffffff"
     bordercolor="#666666"
     borderopacity="1.0"
     inkscape:pageopacity="0.0"
     inkscape:pageshadow="2"
     inkscape:zoom="0.25"
     inkscape:cx="43.009292"
     inkscape:cy="821.90834"
     inkscape:document-units="mm"
     inkscape:current-layer="layer1"
     id="namedview1882"
     width="269.99999mm"
     height="189mm"
     units="mm"
     showguides="true"
     inkscape:guide-bbox="true"
     inkscape:window-width="1024"
     inkscape:window-height="719"
     inkscape:window-x="-4"
     inkscape:window-y="-4"
     showgrid="false"
     inkscape:window-maximized="0">
    <sodipodi:guide
       orientation="vertical"
       position="-154,470"
       id="guide1887" />
    <sodipodi:guide
       orientation="vertical"
       position="946.063"
       id="guide1889" />
    <sodipodi:guide
       orientation="horizontal"
       position="787.37432,10.629921"
       id="guide1891" />
    <sodipodi:guide
       orientation="horizontal"
       position="10.629921"
       id="guide1893" />
    <sodipodi:guide
       orientation="vertical"
       position="-245.12597,1110.4949"
       id="guide1895" />
    <sodipodi:guide
       orientation="vertical"
       position="946.063,1155.0633"
       id="guide1897" />
  </sodipodi:namedview>
  <metadata
     id="metadata1884">
    <rdf:RDF>
      <cc:Work
         rdf:about="">
        <dc:format>image/svg+xml</dc:format>
        <dc:type
           rdf:resource="http://purl.org/dc/dcmitype/StillImage" />
        <dc:title></dc:title>
      </cc:Work>
    </rdf:RDF>
  </metadata>
  <g
     inkscape:label="Layer 1"
     inkscape:groupmode="layer"
     id="layer1"
     transform="translate(0,287.00789)">
    <g
       transform="matrix(0.10167257,-0.25136082,-0.25620261,-0.00951973,350.95098,-36.93972)"
       id="Layer 1"
       style="fill:#808080"
       inkscape:transform-center-y="55.210631"
       inkscape:transform-center-x="49.761281">
      <path
         style="fill:#808080;stroke:#000000;stroke-width:1"
         inkscape:connector-curvature="0"
         d="m 339,214 q 11,3 18,10 8,8 22,39 14,32 38,111 24,79 37,140 c 0,0 13.371,59.25 14,61 0.629,1.75 2.129,2.5 4.879,2 2.75,-0.5 2.121,-5 2.121,-5 l -9,-61 q -9,-61 -28,-134 -18,-73 -22,-99 -4,-26 0,-36 4,-10 16,-18 12,-7 27,-3 15,4 25,14 11,11 23,37 12,26 27,76 15,50 30,120 16,71 19,104 4,33 21,72 17,39 35,65 19,27 35,43 17,16 24,15 7,-1 15,-11 9,-9 36,-70 27,-61 43,-80 16,-19 33,-32 17,-13 34,-20 18,-7 35,-7 17,0 25,6 8,7 7,14 0,7 -14,32 -14,25 -38,91 -24,67 -27,82 -2,16 0,26 2,10 1,41 -1,32 -5,43 -3,11 -48,86 -44,76 -68,104 -24,28 -23,54 1,27 18,119 l 17,93 -157,0 -156,0 1,-30 q 1,-29 -5,-62 -5,-33 -25,-66 -19,-33 -52,-77 -33,-43 -53,-78 -19,-34 -41,-91 -21,-56 -33,-104 -12,-47 -61,-147 -49,-99 -57,-123 -8,-24 -8,-36 0,-11 10,-22 10,-10 17,-11 7,-1 14,2 8,3 74,113 c 0,0 62.871,105.75 66,110 3.129,4.25 28.621,16.75 21,-22 q -7.621,-38.75 0,0 0,-17 -64,-174 C 230,520 174.758,394 170.758,376.5 166.758,359 168,351 168,351 q 2,-12 9,-19 7,-6 19,-10 13,-3 20,-1 8,3 14,9 6,7 14,28 9,22 53,109 44,87 55,120 c 0,0 9.121,28.5 12,33 2.879,4.5 15.871,15.5 13,-8 q -2.871,-23.5 0,0 0,-11 -18,-84 -17,-73 -45,-171 c 0,0 -19.242,-64.5 -23.242,-83 -4,-18.5 -2,-31.5 -2,-31.5 8,-18 9.984,-21 26.242,-25.5 16.258,-4.5 24,-3 24,-3 z"
         id="path11382" />
    </g>
    <g
       transform="matrix(-0.08992175,-0.22774604,0.25397946,-0.04684118,535.02102,321.91319)"
       id="Layer 1-3"
       style="fill:#808080"
       inkscape:transform-center-x="28.055874"
       inkscape:transform-center-y="13.367377">
      <path
         style="fill:#808080;stroke:#000000;stroke-width:1"
         inkscape:connector-curvature="0"
         d="m 339,214 q 11,3 18,10 8,8 22,39 14,32 38,111 24,79 37,140 c 0,0 13.371,59.25 14,61 0.629,1.75 2.129,2.5 4.879,2 2.75,-0.5 2.121,-5 2.121,-5 l -9,-61 q -9,-61 -28,-134 -18,-73 -22,-99 -4,-26 0,-36 4,-10 16,-18 12,-7 27,-3 15,4 25,14 11,11 23,37 12,26 27,76 15,50 30,120 16,71 19,104 4,33 21,72 17,39 35,65 19,27 35,43 17,16 24,15 7,-1 15,-11 9,-9 36,-70 27,-61 43,-80 16,-19 33,-32 17,-13 34,-20 18,-7 35,-7 17,0 25,6 8,7 7,14 0,7 -14,32 -14,25 -38,91 -24,67 -27,82 -2,16 0,26 2,10 1,41 -1,32 -5,43 -3,11 -48,86 -44,76 -68,104 -24,28 -23,54 1,27 18,119 l 17,93 -157,0 -156,0 1,-30 q 1,-29 -5,-62 -5,-33 -25,-66 -19,-33 -52,-77 -33,-43 -53,-78 -19,-34 -41,-91 -21,-56 -33,-104 -12,-47 -61,-147 -49,-99 -57,-123 -8,-24 -8,-36 0,-11 10,-22 10,-10 17,-11 7,-1 14,2 8,3 74,113 c 0,0 62.871,105.75 66,110 3.129,4.25 28.621,16.75 21,-22 q -7.621,-38.75 0,0 0,-17 -64,-174 C 230,520 174.758,394 170.758,376.5 166.758,359 168,351 168,351 q 2,-12 9,-19 7,-6 19,-10 13,-3 20,-1 8,3 14,9 6,7 14,28 9,22 53,109 44,87 55,120 c 0,0 9.121,28.5 12,33 2.879,4.5 15.871,15.5 13,-8 q -2.871,-23.5 0,0 0,-11 -18,-84 -17,-73 -45,-171 c 0,0 -19.242,-64.5 -23.242,-83 -4,-18.5 -2,-31.5 -2,-31.5 8,-18 9.984,-21 26.242,-25.5 16.258,-4.5 24,-3 24,-3 z"
         id="path11382-7" />
    </g>
    <path
       inkscape:connector-curvature="0"
       id="path11"
       d="M 308.45693,-153.61542 V 56.250162 H 579.63799 V -153.61542 H 308.45693 z M 557.03948,32.931776 H 331.05529 V -130.29702 H 557.03948 V 32.931776 z m 22.59851,46.636781 45.19685,93.273243 -361.57478,0 45.19687,-93.273243 z" />
    <text
       xml:space="preserve"
       style="font-size:21.85342789px;font-style:normal;font-weight:normal;line-height:125%;letter-spacing:0px;word-spacing:0px;fill:#f9f9f9;fill-opacity:1;stroke:none;font-family:Sans"
       x="369.59561"
       y="125.68001"
       id="text2985"
       sodipodi:linespacing="125%"><tspan
         sodipodi:role="line"
         id="tspan2987"
         x="369.59561"
         y="125.68001"
         style="font-size:39.73350525px;fill:#f9f9f9">against </tspan><tspan
         sodipodi:role="line"
         x="369.59561"
         y="175.34689"
         style="font-size:39.73350525px;fill:#f9f9f9"
         id="tspan3039" /><tspan
         sodipodi:role="line"
         x="369.59561"
         y="225.01376"
         id="tspan2989"
         style="font-size:39.73350525px;fill:#f9f9f9" /><tspan
         sodipodi:role="line"
         x="369.59561"
         y="274.68066"
         id="tspan2991"
         style="font-size:39.73350525px;fill:#f9f9f9" /></text>
    <text
       xml:space="preserve"
       style="font-size:37.02674103px;font-style:normal;font-weight:normal;line-height:125%;letter-spacing:0px;word-spacing:0px;fill:#000000;fill-opacity:1;stroke:none;font-family:Sans"
       x="567.11389"
       y="231.23863"
       id="text3041"
       sodipodi:linespacing="125%"><tspan
         sodipodi:role="line"
         id="tspan3043"
         x="567.11389"
         y="231.23863"
         style="font-size:60.58921814px;font-style:normal;font-variant:normal;font-weight:bold;font-stretch:normal;font-family:Century Schoolbook L;-inkscape-font-specification:Century Schoolbook L Bold">Poverty</tspan></text>
    <text
       xml:space="preserve"
       style="font-size:50.60270691px;font-style:normal;font-weight:normal;line-height:125%;letter-spacing:0px;word-spacing:0px;fill:#000000;fill-opacity:1;stroke:none;font-family:Sans"
       x="61.776398"
       y="-173.07568"
       id="text3067"
       sodipodi:linespacing="125%"><tspan
         sodipodi:role="line"
         id="tspan3069"
         x="61.776398"
         y="-173.07568"
         style="font-style:normal;font-variant:normal;font-weight:bold;font-stretch:normal;font-family:Bitstream Charter;-inkscape-font-specification:Bitstream Charter Bold">Open Source</tspan></text>
    <rect
       style="fill:#aa0000;fill-opacity:1;stroke:#f5f0b9;stroke-width:0;stroke-miterlimit:4;stroke-opacity:1;stroke-dasharray:none"
       id="rect11918"
       width="27.231901"
       height="230.01656"
       x="430.43152"
       y="-164.50113"
       ry="0.098741889" />
    <rect
       style="fill:#aa0000;fill-opacity:1;stroke:#f5f0b9;stroke-width:0;stroke-miterlimit:4;stroke-opacity:1;stroke-dasharray:none"
       id="rect11920"
       width="313.63641"
       height="25.643736"
       x="287.22925"
       y="-60.37204"
       ry="0.047224384" />
    <path
       style="fill:#ff2a2a;fill-opacity:1;stroke:#f5f0b9;stroke-width:0;stroke-miterlimit:4;stroke-opacity:1;stroke-dasharray:none"
       id="path11776"
       d="m 476.80143,-53.553756 c -1.85117,-0.559867 -3.68095,-1.138345 -5.63812,-1.496383 -1.97191,-0.402078 -3.81377,-0.991516 -5.63557,-1.640651 -1.48207,-0.48082 -2.96375,-1.037266 -4.29588,-1.703909 -1.38184,-0.635918 -2.82915,-1.205937 -4.08811,-1.960294 -1.24168,-0.682841 -2.60498,-1.244002 -3.78829,-1.977047 -1.04304,-0.690179 -2.27393,-1.188733 -3.3417,-1.857443 -1.31726,-0.651846 -2.46814,-1.442643 -3.68283,-2.180457 -1.22144,-0.587492 -2.45093,-1.189723 -3.51267,-1.916733 -1.07185,-0.781418 -2.17332,-1.557895 -3.4749,-2.154159 -1.18457,-0.647598 -2.47988,-1.259677 -3.88141,-1.654815 -1.36624,-0.502966 -2.54035,-1.195941 -3.64299,-1.946304 -1.08281,-0.968215 -2.24372,-1.828489 -3.62054,-2.593077 -1.41561,-0.713575 -2.89332,-1.323065 -4.49315,-1.814452 -1.7587,-0.49449 -3.33368,-0.5067 -5.1633,-0.30088 -1.75472,0.0713 -3.32154,0.60356 -5.03089,0.838243 -0.70005,0.209436 -1.359,0.455956 -2.0354,0.695424 -0.24666,0.08732 -0.99831,0.33063 -0.75912,0.233693 13.27771,-5.38075 14.71656,-6.03516 10.50129,-4.1523 -1.36883,0.73681 -2.61324,1.62156 -3.47771,2.6713 -0.71602,1.096943 -0.75908,2.314004 -0.81394,3.498065 -0.14973,1.118944 0.044,2.135227 0.7144,3.147247 0.56225,0.880778 1.24292,1.723796 1.90922,2.569376 0.78453,0.983326 1.54504,1.987382 2.17412,3.025394 0.56068,1.049311 1.15217,2.066637 1.46709,3.16987 0.0992,1.13772 0.53723,2.229794 0.8479,3.342884 0.33258,1.189731 0.40556,2.36694 0.004,3.547335 -0.46896,0.940711 -1.21168,1.78867 -1.82157,2.683249 -0.69268,0.913588 -1.62782,1.715937 -2.43438,2.579789 -0.89574,0.801793 -1.71173,1.635206 -2.54114,2.469079 -0.62935,0.854838 -1.37644,1.652783 -2.13521,2.452266 -0.64599,0.87931 -1.12205,1.814941 -1.75677,2.697595 -0.75046,0.971879 -0.91955,2.061765 -1.03894,3.143573 -0.20975,1.294632 -0.0796,2.501472 0.49459,3.734401 0.49865,1.224027 1.02529,2.436294 1.56063,3.652705 0.23418,0.861325 0.67958,1.761044 2.15346,1.62996 1.45106,-0.230219 2.94076,-0.29491 4.42214,-0.35255 1.85403,-0.05958 3.71043,-0.0634 5.56603,-0.06765 1.88273,-0.0017 3.76547,-2.09e-4 5.6482,4.6e-4 1.57845,-0.330213 3.19629,-0.492284 4.83407,-0.581144 1.82818,-0.07712 3.66065,-0.07642 5.49144,-0.0792 1.8791,-2.61e-4 3.75821,0.0017 5.63731,0.0035 1.89194,0.06305 3.71587,0.0035 5.56806,-0.24817 1.80756,-0.337812 3.74158,-0.155193 5.52373,-0.520995 1.01433,-0.306452 2.15904,-0.248456 3.20669,-0.426125 0.48387,-0.08207 0.93051,-0.248456 1.40278,-0.358681 1.64652,-0.244878 3.2868,-0.379758 4.92541,-0.65029 1.64791,-0.324212 3.19386,-0.76286 4.9117,-0.93768 1.66552,-0.0035 3.19315,-0.43751 4.82373,-0.618105 1.79631,-0.344829 3.44581,-0.939895 5.15394,-1.443651 1.02942,-0.478909 0.50679,-0.257349 1.5662,-0.666626 0,0 -10.77343,6.075773 -10.77343,6.075773 l 0,0 c -1.04666,0.408617 -0.50521,0.214465 -1.62626,0.579816 -1.7351,0.54235 -3.50819,1.049076 -5.38423,1.297888 -1.59808,0.251505 -3.1841,0.486309 -4.81424,0.615327 -1.6422,0.279469 -3.19419,0.761183 -4.86928,0.953486 -1.63201,0.246415 -3.31465,0.32864 -4.89736,0.726115 -1.53487,0.29861 -3.13724,0.412004 -4.68197,0.690795 -1.84751,0.12379 -3.6967,0.235864 -5.52031,0.489522 -1.89357,0.18037 -3.79883,0.116973 -5.70588,0.12161 -1.87766,-0.0017 -3.75536,-0.0052 -5.63299,0.0026 -1.81112,0.01242 -3.62639,0.02493 -5.42867,0.163843 -1.63856,0.149427 -3.24522,0.465232 -4.90078,0.490582 -1.8809,-8.69e-4 -3.76183,-0.0035 -5.64271,0.0052 -1.84334,0.01164 -3.68841,0.0264 -5.52723,0.125995 -1.55591,0.09511 -3.13912,0.340834 -4.69376,0.173587 -1.63697,-0.479856 -2.64427,-1.292505 -2.90176,-2.548143 -0.5024,-1.215325 -1.03165,-2.418682 -1.49737,-3.641042 -0.65767,-1.341407 -1.01005,-2.624489 -0.76569,-4.05222 0.0724,-1.171789 0.1511,-2.365881 0.75769,-3.473665 0.61233,-0.900848 1.28225,-1.783468 1.7329,-2.730588 0.56496,-0.907118 1.63132,-1.572503 2.0976,-2.515636 0.74185,-0.902482 1.61151,-1.72642 2.51695,-2.546519 0.93493,-0.75507 1.63176,-1.674608 2.47323,-2.472518 0.80073,-0.771197 1.25979,-1.709389 1.91631,-2.542672 0.82235,-0.940858 0.59674,-2.026818 0.36547,-3.072646 -0.28935,-1.117277 -0.79435,-2.202255 -0.84745,-3.344951 -0.25742,-1.04674 -0.82054,-1.997047 -1.33373,-2.989969 -0.5861,-1.0107 -1.32108,-1.989119 -2.12061,-2.923455 -0.68262,-0.864625 -1.3745,-1.729476 -1.95223,-2.629578 -0.7601,-1.141654 -1.13215,-2.285279 -0.96306,-3.556871 0.0254,-1.288909 0.0399,-2.59662 0.54759,-3.84644 0.65371,-1.242386 1.86154,-2.198486 3.21527,-3.107637 4.54429,-2.84837 10.34108,-4.94467 16.18871,-6.23458 1.68379,-0.32354 3.34554,-0.67658 5.10764,-0.73106 1.94031,-0.0828 3.83205,0.155 5.6051,0.72815 1.65097,0.56727 3.2032,1.22386 4.66078,2.01207 1.39927,0.78422 2.54116,1.70507 3.71791,2.64222 1.04241,0.65581 2.12801,1.271086 3.41241,1.683299 1.40513,0.512388 2.75073,1.114705 3.989,1.806595 1.3071,0.673105 2.47138,1.45573 3.61855,2.256872 1.09801,0.685124 2.29956,1.27959 3.46265,1.90863 1.18221,0.754809 2.40691,1.472318 3.67978,2.152327 1.11732,0.620207 2.29853,1.177286 3.34384,1.860535 1.21781,0.692627 2.55277,1.272616 3.77227,1.963889 1.27218,0.695711 2.66504,1.265201 4.01033,1.887527 1.34679,0.5953 2.75071,1.134706 4.18681,1.617055 1.73923,0.636508 3.56785,1.118031 5.45342,1.502054 1.90867,0.429051 3.71587,1.063849 5.67462,1.376293 0,0 -11.42957,5.565086 -11.42957,5.565086 z"
       inkscape:connector-curvature="0" />
    <path
       style="fill:#ff2a2a;fill-opacity:1;stroke:#f5f0b9;stroke-width:0;stroke-miterlimit:4;stroke-opacity:1;stroke-dasharray:none"
       id="path11802"
       d="m 451.24317,-59.950615 c -1.06622,1.284211 -2.24954,2.500144 -3.33412,3.772622 -0.76332,1.116972 -1.46516,2.252069 -1.84941,3.498832 -0.33755,1.425638 -0.34114,2.885381 -0.36079,4.332462 0.0415,1.235829 0.61388,2.347651 1.11241,3.487091 0.58793,1.044899 1.28352,2.045507 1.83789,3.102538 0.53952,0.991003 1.404,1.785344 2.20635,2.626548 0.93108,0.711864 1.65802,1.599477 2.77494,2.122799 0.72231,0.474759 0.35507,0.26309 1.0964,0.641241 0,0 -11.70342,6.209385 -11.70342,6.209385 l 0,0 c -0.76527,-0.440749 -0.39835,-0.22433 -1.10188,-0.647911 -1.12364,-0.698047 -2.04066,-1.577904 -3.0014,-2.421861 -0.89615,-0.912268 -1.77846,-1.82643 -2.38359,-2.900848 -0.5519,-1.082816 -1.28463,-2.096564 -1.87416,-3.166431 -0.54096,-1.2687 -1.18349,-2.495949 -1.29434,-3.862229 0.005,-1.507568 -0.003,-3.020704 0.2132,-4.520031 0.26901,-1.404709 0.87879,-2.619669 1.66212,-3.872806 0.90716,-1.37856 2.32868,-2.44471 3.20372,-3.838103 0,0 12.79608,-4.563298 12.79608,-4.563298 z"
       inkscape:connector-curvature="0" />
    <path
       style="fill:#ff2a2a;fill-opacity:1;stroke:#f5f0b9;stroke-width:0;stroke-miterlimit:4;stroke-opacity:1;stroke-dasharray:none"
       id="path11824"
       d="m 477.09622,-34.549673 c 0.0254,1.819014 -0.30988,3.611601 -0.591,5.409694 -0.34376,1.703205 -0.84651,3.380401 -1.55877,5.003378 -0.56792,1.216168 -1.39015,2.33611 -1.97315,3.543914 -0.60199,1.116651 -0.98654,2.29894 -1.51856,3.436286 -0.43644,1.224522 -1.24589,2.31082 -1.90354,3.454758 -0.66472,1.319878 -1.35903,2.626174 -2.33493,3.810503 -1.03665,1.154264 -1.85914,2.422652 -2.80164,3.627112 -0.9794,1.152205 -1.68067,2.434888 -2.50293,3.662883 -0.88001,1.13059 -1.87293,2.206771 -2.62611,3.39942 -0.63798,1.280381 -1.53256,2.442861 -2.43189,3.603594 -1.02611,1.367418 -1.92824,2.794159 -2.81962,4.223645 -0.85774,1.309865 -1.76111,2.607702 -2.76312,3.846397 -0.78294,1.136834 -1.62437,2.244904 -2.42349,3.374374 -0.84004,1.010291 -1.46184,2.124953 -2.34653,3.11078 -0.82382,0.983777 -1.50398,2.030987 -2.13233,3.107176 -0.75698,1.301693 -1.68594,2.529602 -2.53499,3.791389 -0.88034,1.255743 -1.77905,2.510556 -2.76512,3.712229 -0.90059,1.11025 -2.07043,2.049632 -3.13865,3.048251 -1.02821,0.774454 -1.86874,1.659071 -2.69978,2.572034 -0.7639,0.914779 -1.61702,1.787576 -2.56926,2.573259 -1.1835,1.06437 -2.41719,2.091666 -3.64831,3.119917 -1.00763,0.791605 -2.07516,1.523018 -3.18783,2.210027 0,0 -12.82735,4.207943 -12.82735,4.207943 l 0,0 c 1.10962,-0.660912 2.2359,-1.289091 3.22214,-2.079993 1.30879,-0.919043 2.39806,-2.014599 3.62927,-2.984212 0.80612,-0.86598 1.83891,-1.565382 2.64789,-2.432908 0.72988,-1.033071 1.58491,-1.955631 2.60484,-2.798753 1.20467,-0.848889 2.09833,-1.94375 3.27315,-2.826222 0.92242,-1.220032 1.90155,-2.410675 2.8506,-3.620381 0.74965,-1.280051 1.62462,-2.511399 2.54396,-3.711022 0.55355,-1.157798 1.22323,-2.243993 1.98704,-3.301823 0.81785,-1.027765 1.77832,-1.962014 2.37944,-3.108193 0.97438,-1.011698 1.65941,-2.239754 2.44475,-3.350534 0.9441,-1.253746 1.94494,-2.475714 2.87659,-3.740914 0.82338,-1.463208 1.75641,-2.888526 2.73301,-4.28376 0.77535,-1.201794 1.82567,-2.250575 2.51777,-3.49013 0.5868,-1.322162 1.54789,-2.406185 2.48141,-3.577045 1.10503,-1.089321 1.53491,-2.486622 2.54895,-3.6293 0.8928,-1.230358 1.81382,-2.4496 2.76213,-3.651958 0.92136,-1.165875 1.93536,-2.259512 2.46566,-3.611714 0.51793,-1.195802 1.41452,-2.224027 1.88748,-3.421931 0.16995,-0.359801 0.41388,-0.695155 0.56211,-1.061469 0.31491,-0.778214 0.37966,-1.634711 1.00054,-2.321589 0.42218,-1.321389 1.29656,-2.423528 1.94894,-3.667877 0.96667,-1.460525 1.26259,-3.12267 1.77595,-4.717935 0.2682,-1.735651 0.7506,-3.467107 0.54028,-5.224505 0,0 12.415,-5.234795 12.415,-5.234795 z"
       inkscape:connector-curvature="0" />
    <path
       style="fill:#ff2a2a;fill-opacity:1;stroke:#f5f0b9;stroke-width:0;stroke-miterlimit:4;stroke-opacity:1;stroke-dasharray:none"
       id="path11840"
       d="m 467.58616,-34.447222 c -0.49543,1.743589 -0.97984,3.494447 -1.67696,5.191582 -0.6277,1.440767 -1.23845,2.877426 -1.75426,4.348363 -0.63526,1.24593 -0.9583,2.54797 -1.12832,3.885834 0.0131,1.409172 -0.31298,2.771136 -0.63637,4.145345 -0.12712,1.382398 -0.80263,2.627806 -1.412,3.895551 -0.76007,1.393323 -1.30301,2.825753 -1.59603,4.33327 -0.15244,1.458805 -0.24003,2.901031 -0.60034,4.337317 -0.42644,1.469374 -1.12578,2.876245 -1.99495,4.202011 -0.82738,1.213015 -1.67572,2.418405 -2.72651,3.509349 -0.90485,0.967051 -1.96037,1.82406 -2.93302,2.743989 -1.27133,1.204373 -2.61144,2.361329 -4.27718,3.185007 -5.68547,2.233484 -10.74512,5.366514 -16.43047,7.541239 21.019,-9.480899 11.95393,-6.012897 7.64423,-3.411952 -1.52459,1.108835 -3.11509,2.151667 -4.73754,3.160508 0,0 -12.8177,4.26461 -12.8177,4.26461 l 0,0 c 1.51871,-1.094419 3.28256,-1.955874 4.71042,-3.14188 4.46632,-3.4185 12.74979,-4.254145 16.01833,-8.034304 4.66169,-2.095279 13.67587,-5.152649 -7.28863,3.748764 0.26724,-0.137224 0.53449,-0.274449 0.80172,-0.411665 0.28951,-0.100949 0.59789,-0.170833 0.86853,-0.302839 1.06527,-0.519562 1.82435,-1.477607 2.74613,-2.137094 0.95891,-0.916559 1.85541,-1.856245 2.94447,-2.660816 0.96278,-1.114185 2.09144,-2.120473 2.83532,-3.364925 0.83402,-1.257445 1.67563,-2.492936 2.15354,-3.888387 0.35331,-1.426932 0.71308,-2.809973 0.67468,-4.28217 0.21916,-1.567492 0.58127,-3.119751 1.45135,-4.541056 0.48883,-1.246016 1.36898,-2.390927 1.50214,-3.714253 0.26125,-1.359462 0.80928,-2.665766 0.70797,-4.058994 0.11094,-1.412716 0.27711,-2.836288 0.96516,-4.150573 0.7354,-1.398934 1.00617,-2.96726 1.79068,-4.361834 0.73326,-1.619868 1.38653,-3.278748 1.66089,-5.000095 0,0 12.53472,-5.029902 12.53472,-5.029902 z"
       inkscape:connector-curvature="0" />
    <path
       style="fill:#ff2a2a;fill-opacity:1;stroke:#f5f0b9;stroke-width:0;stroke-miterlimit:4;stroke-opacity:1;stroke-dasharray:none"
       id="path11840-0"
       d="m 420.74226,-32.51497 c 0.4642,1.70153 0.91702,3.410519 1.58732,5.06041 0.60553,1.399594 1.19393,2.795662 1.68502,4.228231 0.61763,1.207621 0.91656,2.47963 1.05909,3.791362 -0.0452,1.387314 0.2554,2.718187 0.55305,4.061209 0.0979,1.356831 0.75647,2.562759 1.34729,3.792605 0.74119,1.349032 1.26075,2.742911 1.5245,4.218025 0.12189,1.431293 0.17826,2.848169 0.51204,4.251193 0.40026,1.433663 1.0794,2.797797 1.93306,4.077136 0.81371,1.169592 1.64891,2.331073 2.69254,3.373966 0.89806,0.925235 1.95181,1.737779 2.91987,2.614649 1.26529,1.148063 2.60159,2.247449 4.27651,3.009267 5.72993,2.03149 10.80317,4.96666 16.53429,6.940311 -21.15559,-8.714765 -12.01752,-5.567379 -7.69471,-3.133907 1.52495,1.046619 3.11841,2.026349 4.74513,2.971662 0,0 12.93539,3.821394 12.93539,3.821394 l 0,0 c -1.51931,-1.032602 -3.29313,-1.828714 -4.71797,-2.954128 -4.46353,-3.233537 -12.86659,-3.813074 -16.10409,-7.437685 -4.69218,-1.92546 -13.7878,-4.670222 7.32553,3.475827 -0.26859,-0.12722 -0.5372,-0.254431 -0.80579,-0.381651 -0.29207,-0.09087 -0.60401,-0.150608 -0.8762,-0.272582 -1.07131,-0.480108 -1.82135,-1.400775 -2.74361,-2.022806 -0.95416,-0.87397 -1.84435,-1.772526 -2.93338,-2.53245 -0.95363,-1.068339 -2.07835,-2.025646 -2.80647,-3.228621 -0.81945,-1.213136 -1.64714,-2.404431 -2.10139,-3.763833 -0.32688,-1.394026 -0.66132,-2.744674 -0.58889,-4.194742 -0.18728,-1.536306 -0.52027,-3.053419 -1.37269,-4.426759 -0.46875,-1.21199 -1.33767,-2.313018 -1.44304,-3.611532 -0.23481,-1.330334 -0.76238,-2.599938 -0.62781,-3.97412 -0.0808,-1.387149 -0.21743,-2.783364 -0.88719,-4.056711 -0.71599,-1.355276 -0.95573,-2.890896 -1.72174,-4.240414 -0.70881,-1.572781 -1.3354,-3.186301 -1.57531,-4.872416 0,0 -12.63035,-4.582881 -12.63035,-4.582881 z"
       inkscape:connector-curvature="0" />
    <path
       style="fill:#ff2a2a;fill-opacity:1;stroke:#f5f0b9;stroke-width:0;stroke-miterlimit:4;stroke-opacity:1;stroke-dasharray:none"
       id="path11824-7"
       d="m 410.99869,-36.798555 c -0.0254,1.817815 0.30986,3.626173 0.59098,5.437484 0.34377,1.719368 0.84653,3.420211 1.55878,5.076676 0.56792,1.242873 1.39015,2.401487 1.97315,3.6367 0.60199,1.144962 0.98655,2.345341 1.51855,3.507699 0.43644,1.245043 1.2459,2.369406 1.90355,3.54427 0.66471,1.351142 1.35902,2.690083 2.33492,3.920302 1.03665,1.20301 1.85916,2.510078 2.80165,3.758865 0.9794,1.198251 1.68067,2.513908 2.50293,3.780576 0.88,1.171963 1.87293,2.294849 2.6261,3.522906 0.638,1.310377 1.53257,2.514933 2.43189,3.717961 1.02613,1.415668 1.92824,2.884834 2.81963,4.356231 0.85773,1.350205 1.76111,2.690518 2.76313,3.976327 0.78292,1.173647 1.62436,2.321293 2.42347,3.488341 0.84005,1.049788 1.46185,2.1937 2.34653,3.221135 0.82383,1.02251 1.50399,2.101705 2.13235,3.207448 0.75697,1.337282 1.68593,2.608874 2.53498,3.910584 0.88035,1.297142 1.77905,2.594223 2.76511,3.842254 0.90059,1.152605 2.07043,2.146995 3.13865,3.195846 1.02822,0.822809 1.86874,1.746958 2.69978,2.698993 0.76391,0.950707 1.61702,1.863618 2.56927,2.694087 1.1835,1.120021 2.4172,2.20532 3.64831,3.291462 1.00763,0.838998 2.07516,1.620607 3.18782,2.359941 0,0 12.82735,4.811146 12.82735,4.811146 l 0,0 c -1.10961,-0.713098 -2.2359,-1.394244 -3.22213,-2.231522 -1.30879,-0.98059 -2.39806,-2.127368 -3.62928,-3.154872 -0.8061,-0.903879 -1.8389,-1.651862 -2.64788,-2.557427 -0.72989,-1.067392 -1.58491,-2.030161 -2.60484,-2.92124 -1.20467,-0.905546 -2.09833,-2.042415 -3.27314,-2.980147 -0.92242,-1.263402 -1.90156,-2.500091 -2.85061,-3.754427 -0.74964,-1.315302 -1.62463,-2.587788 -2.54397,-3.830643 -0.55355,-1.183835 -1.22323,-2.30151 -1.98704,-3.395269 -0.81784,-1.06622 -1.77832,-2.045646 -2.37944,-3.220075 -0.97437,-1.057527 -1.65941,-2.317794 -2.44473,-3.46551 -0.94412,-1.298132 -1.94494,-2.567162 -2.8766,-3.876176 -0.82339,-1.501941 -1.7564,-2.971124 -2.73302,-4.412282 -0.77534,-1.23826 -1.82567,-2.336422 -2.51776,-3.608526 -0.58681,-1.349753 -1.54789,-2.478979 -2.48142,-3.693731 -1.10501,-1.141272 -1.5349,-2.558799 -2.54894,-3.749156 -0.8928,-1.272347 -1.81382,-2.534899 -2.76213,-3.781853 -0.92135,-1.209202 -1.93536,-2.350517 -2.46567,-3.727661 -0.51792,-1.220162 -1.41451,-2.290542 -1.88746,-3.510695 -0.16996,-0.367774 -0.4139,-0.714609 -0.56213,-1.087897 -0.31491,-0.793012 -0.37964,-1.652557 -1.00053,-2.368642 -0.42219,-1.341233 -1.29656,-2.484485 -1.94895,-3.759525 -0.96666,-1.505971 -1.26258,-3.182037 -1.77594,-4.801437 -0.2682,-1.748269 -0.7506,-3.502418 -0.54028,-5.249915 0,0 -12.41499,-5.818606 -12.41499,-5.818606 z"
       inkscape:connector-curvature="0" />
    <path
       style="fill:#ff2a2a;fill-opacity:1;stroke:#f5f0b9;stroke-width:0;stroke-miterlimit:4;stroke-opacity:1;stroke-dasharray:none"
       id="path11776-7"
       d="m 410.90471,-54.619993 c 2.02976,-0.346219 4.04186,-0.713983 6.13385,-0.841785 2.11728,-0.170869 4.14432,-0.548334 6.16454,-0.989049 1.63258,-0.310369 3.28221,-0.69783 4.80375,-1.215638 1.56549,-0.48049 3.18297,-0.885937 4.64965,-1.501949 1.43241,-0.545251 2.96162,-0.951836 4.34571,-1.555299 1.23019,-0.576776 2.60897,-0.935613 3.8596,-1.487525 1.50286,-0.504538 2.86698,-1.170739 4.2844,-1.775261 1.38963,-0.45059 2.79091,-0.915196 4.04881,-1.527222 1.28082,-0.666227 2.59092,-1.32383 4.06486,-1.773646 1.36566,-0.516271 2.8368,-0.982961 4.36691,-1.215803 1.51876,-0.346948 2.88417,-0.910705 4.18943,-1.54156 1.3352,-0.855176 2.72568,-1.590949 4.31571,-2.203114 1.61809,-0.555508 3.27589,-0.997482 5.03182,-1.304368 1.91972,-0.290811 3.53949,-0.112612 5.37035,0.318506 1.78501,0.284992 3.2707,1.016831 4.9714,1.462791 0.67035,0.298063 1.28995,0.628936 1.92909,0.954737 0.23307,0.118804 0.94856,0.457623 0.72538,0.329934 -12.38918,-7.088061 -13.7153,-7.928816 -9.82242,-5.50069 1.23518,0.916211 2.30849,1.968058 2.95363,3.141966 0.48182,1.204035 0.24504,2.448965 0.028,3.661702 -0.10462,1.157894 -0.53821,2.169636 -1.46008,3.119352 -0.78059,0.829114 -1.67404,1.605427 -2.55333,2.386098 -1.03246,0.906667 -2.04505,1.837356 -2.93057,2.818537 -0.81788,1.000981 -1.66001,1.965644 -2.23805,3.051291 -0.36448,1.14689 -1.06637,2.206267 -1.64231,3.302474 -0.61611,1.171616 -0.96285,2.361903 -0.82292,3.612904 0.26428,1.014981 0.83101,1.968623 1.25061,2.953668 0.5002,1.014443 1.27501,1.944914 1.90361,2.922473 0.7345,0.925131 1.37981,1.872833 2.03879,2.822619 0.44874,0.946928 1.03151,1.850148 1.62592,2.756363 0.46018,0.97386 0.7329,1.984533 1.18074,2.960434 0.54607,1.08081 0.46804,2.211451 0.34083,3.327842 -0.0836,1.344125 -0.49575,2.55767 -1.36998,3.74404 -0.79454,1.18644 -1.61513,2.357535 -2.44557,3.531782 -0.43928,0.849019 -1.1043,1.711568 -2.58717,1.399637 -1.43659,-0.410137 -2.95104,-0.656361 -4.45858,-0.894379 -1.88968,-0.285096 -3.79466,-0.513726 -5.69873,-0.742625 -1.93248,-0.229758 -3.86577,-0.455991 -5.79882,-0.683196 -1.54427,-0.527421 -3.1678,-0.888334 -4.82871,-1.177087 -1.8591,-0.299799 -3.74054,-0.520934 -5.61948,-0.745386 -1.92911,-0.227718 -3.85888,-0.452561 -5.78838,-0.678611 -1.9569,-0.164798 -3.81573,-0.44603 -5.65913,-0.926754 -1.77773,-0.56289 -3.80544,-0.610967 -5.55063,-1.199294 -0.9706,-0.434939 -2.1592,-0.51442 -3.19375,-0.822201 -0.47782,-0.142157 -0.89794,-0.365715 -1.35734,-0.535151 -1.63387,-0.448748 -3.28671,-0.784675 -4.90651,-1.258582 -1.61698,-0.529706 -3.10285,-1.163652 -4.82609,-1.549654 -1.70917,-0.204869 -3.17723,-0.832154 -4.80957,-1.213493 -1.76456,-0.568673 -3.32061,-1.37446 -4.95795,-2.094349 -0.94628,-0.612434 -0.46088,-0.323482 -1.45403,-0.868611 0,0 9.65772,7.492892 9.65772,7.492892 l 0,0 c 0.9802,0.542906 0.46915,0.279616 1.53571,0.787463 1.65612,0.762452 3.35946,1.49323 5.22805,1.973755 1.58258,0.449617 3.15666,0.88077 4.80045,1.209498 1.62143,0.483452 3.10357,1.161984 4.7789,1.560631 1.6186,0.44854 3.32707,0.735964 4.8602,1.33241 1.50682,0.489948 3.1257,0.799413 4.64723,1.270368 1.86816,0.349718 3.74075,0.687703 5.5544,1.166821 1.90239,0.412942 3.87305,0.578965 5.82985,0.814524 1.92802,0.225877 3.8566,0.449365 5.78256,0.684169 1.85651,0.231861 3.71727,0.464303 5.53549,0.823991 1.64773,0.350552 3.22428,0.8667 4.91811,1.092916 1.93123,0.226727 3.86281,0.452065 5.79199,0.687764 1.88978,0.234969 3.78058,0.473412 5.64542,0.79739 1.57541,0.2852 3.14407,0.727131 4.77876,0.744952 1.79138,-0.290638 3.01315,-0.996492 3.5674,-2.24434 0.79639,-1.177122 1.61757,-2.33882 2.37793,-3.527561 0.9849,-1.286755 1.64291,-2.55107 1.72168,-4.034964 0.19615,-1.202368 0.39112,-2.428192 0.0241,-3.630012 -0.42065,-0.991733 -0.90463,-1.971871 -1.14862,-2.99116 -0.37058,-0.992392 -1.31173,-1.79923 -1.57267,-2.816365 -0.55326,-1.009076 -1.25585,-1.953616 -1.99609,-2.898565 -0.78549,-0.882298 -1.28858,-1.903297 -1.96825,-2.817911 -0.64401,-0.882472 -0.89869,-1.893692 -1.38032,-2.821949 -0.62703,-1.057909 -0.14468,-2.136774 0.33422,-3.174074 0.55502,-1.103051 1.32398,-2.14709 1.64233,-3.304628 0.50596,-1.03506 1.30349,-1.934892 2.0596,-2.884183 0.83508,-0.958566 1.81554,-1.866232 2.85211,-2.721174 0.90044,-0.798102 1.81042,-1.595309 2.61137,-2.442226 1.04395,-1.070901 1.68995,-2.190774 1.80994,-3.506501 0.27151,-1.31597 0.55852,-2.649778 0.3259,-3.984307 -0.38427,-1.344647 -1.40355,-2.464737 -2.58344,-3.554665 -4.00774,-3.451441 -9.47498,-6.288406 -15.18062,-8.310144 -1.65396,-0.53337 -3.27848,-1.09412 -5.07496,-1.3629 -1.97291,-0.31915 -3.96995,-0.30596 -5.92257,0.0632 -1.82593,0.378 -3.57113,0.85891 -5.24954,1.48536 -1.61761,0.62945 -3.00253,1.429222 -4.42701,2.241384 -1.2216,0.541837 -2.4782,1.037169 -3.892,1.301579 -1.56087,0.351855 -3.0814,0.802496 -4.5124,1.357387 -1.49734,0.527422 -2.87333,1.183687 -4.23606,1.860874 -1.28545,0.564982 -2.65626,1.025072 -3.99558,1.525033 -1.38799,0.625757 -2.81098,1.208386 -4.27478,1.746976 -1.29029,0.496513 -2.63159,0.920979 -3.8625,1.490425 -1.41018,0.558104 -2.91463,0.987295 -4.32621,1.543835 -1.46673,0.554674 -3.02819,0.966157 -4.55301,1.437233 -1.52013,0.443364 -3.086,0.822879 -4.67173,1.140368 -1.93254,0.437841 -3.92106,0.706984 -5.94553,0.869923 -2.05859,0.206007 -4.06053,0.633877 -6.1436,0.715043 0,0 10.44923,7.052125 10.44923,7.052125 z"
       inkscape:connector-curvature="0" />
    <path
       style="fill:#ff2a2a;fill-opacity:1;stroke:#f5f0b9;stroke-width:0;stroke-miterlimit:4;stroke-opacity:1;stroke-dasharray:none"
       id="path11802-3"
       d="m 437.63982,-59.727118 c 0.94943,1.284211 2.00316,2.500144 2.96896,3.772622 0.67972,1.116972 1.30469,2.25206 1.64685,3.498832 0.30058,1.42563 0.30378,2.885381 0.32127,4.332462 -0.037,1.235829 -0.54664,2.347651 -0.99056,3.487091 -0.52355,1.044899 -1.14295,2.045507 -1.63661,3.102538 -0.48044,0.991003 -1.25022,1.785344 -1.9647,2.626547 -0.8291,0.711856 -1.47643,1.599478 -2.47103,2.1228 -0.64319,0.474759 -0.31619,0.26309 -0.97632,0.641241 0,0 10.42164,6.209385 10.42164,6.209385 l 0,0 c 0.68146,-0.440749 0.35473,-0.224339 0.9812,-0.647919 1.00058,-0.698039 1.81716,-1.577897 2.67268,-2.421853 0.798,-0.912268 1.58368,-1.82643 2.12254,-2.900848 0.49146,-1.082816 1.14393,-2.096564 1.66889,-3.166431 0.48171,-1.268709 1.05388,-2.495949 1.15259,-3.862229 -0.004,-1.507568 0.003,-3.020704 -0.18986,-4.520031 -0.23954,-1.404709 -0.78253,-2.619669 -1.48008,-3.872806 -0.8078,-1.37856 -2.07363,-2.444719 -2.85283,-3.838103 0,0 -11.39463,-4.563298 -11.39463,-4.563298 z"
       inkscape:connector-curvature="0" />
    <path
       style="fill:#ff2a2a;fill-opacity:1;stroke:#f5f0b9;stroke-width:0;stroke-miterlimit:4;stroke-opacity:1;stroke-dasharray:none"
       d="m 416.8099,-34.590065 c -2.60578,-5.160943 -1.48212,-8.474863 5.10581,-15.058214 1.92461,-1.923281 4.02874,-4.320495 4.67583,-5.327138 1.88065,-2.925626 0.0657,-9.177279 -4.3916,-15.12723 -1.42294,-1.899433 -2.12069,-3.860188 -1.93572,-5.439578 0.24794,-2.117206 0.69548,-2.502525 3.13653,-2.700465 1.87814,-0.1523 3.95578,0.430515 6.10372,1.712163 1.79099,1.068678 5.1579,2.908839 7.482,4.08926 2.32411,1.180422 7.80385,4.240354 12.17723,6.799865 6.87941,4.02615 18.61942,9.608336 22.34794,10.626088 0.89198,0.243471 0.71579,1.093715 -0.70427,3.398716 -2.44062,3.961528 -2.46516,9.65142 -0.0584,13.555335 l 1.83539,2.977186 -5.35675,0.927701 c -5.40829,0.93662 -29.662,2.285791 -42.20113,2.347538 l -6.79536,0.03344 -1.42115,-2.814689 z"
       id="path11922"
       inkscape:connector-curvature="0" />
    <path
       style="fill:#ff7f2a;fill-opacity:1;stroke:#f5f0b9;stroke-width:0;stroke-miterlimit:4;stroke-opacity:1;stroke-dasharray:none"
       d="m 454.76663,-26.420134 c -4.90644,-0.795653 -12.72388,-1.991568 -17.37208,-2.657594 -4.6482,-0.666036 -11.69029,-1.925452 -15.64909,-2.798719 l -7.19781,-1.587762 2.03314,-2.846726 c 2.6862,-3.761106 2.88362,-12.720089 0.35081,-15.918983 -1.85204,-2.339088 -1.4523,-3.635023 1.12123,-3.635023 3.6153,0 20.32546,-5.821872 43.70615,-15.227345 2.55462,-1.027669 6.25205,-1.868482 8.21652,-1.868482 3.42746,0 3.57175,0.105448 3.57175,2.610385 0,1.921631 -0.95574,3.510644 -3.62227,6.022398 -4.68698,4.414931 -7.6461,9.28211 -7.6461,12.576369 0,1.568864 1.55155,5.058117 3.86494,8.691786 2.63484,4.138597 3.84928,7.009614 3.81573,9.02073 -0.0511,3.063606 -3.69126,9.312827 -5.3331,9.15555 -0.51646,-0.0495 -4.95339,-0.740932 -9.85982,-1.536584 z"
       id="path11924"
       inkscape:connector-curvature="0" />
    <path
       style="fill:#ffd42a;fill-opacity:1;stroke:#f5f0b9;stroke-width:0;stroke-miterlimit:4;stroke-opacity:1;stroke-dasharray:none"
       d="m 417.37257,-34.941043 c -1.97715,-5.461019 -1.21048,-7.436338 6.12332,-15.776921 5.26857,-5.991828 5.40748,-8.788557 0.82923,-16.6942 -1.80764,-3.121384 -3.28661,-6.695816 -3.28661,-7.943169 0,-4.320517 3.86245,-3.106047 22.65549,7.123616 9.48934,5.165354 19.66317,10.407385 22.60853,11.648954 l 5.35519,2.257402 -1.3643,2.70212 c -1.76939,3.504416 -1.74271,9.823383 0.0565,13.386932 0.78148,1.547787 1.25887,2.948214 1.06087,3.112066 -0.68151,0.563974 -29.26324,2.475488 -41.12659,2.750501 l -11.88246,0.275457 -1.02921,-2.842758 z"
       id="path11926"
       inkscape:connector-curvature="0" />
    <path
       style="fill:#ff5555;fill-opacity:1;stroke:#f5f0b9;stroke-width:0;stroke-miterlimit:4;stroke-opacity:1;stroke-dasharray:none"
       d="m 456.58822,-26.435532 c -2.3241,-0.408625 -9.71898,-1.616838 -16.43304,-2.684933 -6.71408,-1.068087 -14.99844,-2.497104 -18.40972,-3.175567 l -6.20231,-1.233589 1.74192,-3.793707 c 2.10533,-4.585218 2.24475,-10.601884 0.33336,-14.387514 -0.7747,-1.534352 -1.40854,-2.897063 -1.40854,-3.028234 0,-0.13118 2.42973,-0.8197 5.39942,-1.530053 2.9697,-0.710353 14.062,-4.545303 24.64957,-8.522107 22.50692,-8.453847 26.29287,-9.220753 26.29287,-5.326079 0,1.212806 -1.5803,3.798466 -3.82572,6.259599 -7.59111,8.320347 -8.03342,11.381565 -3.03553,21.009076 3.83629,7.389911 4.17139,10.579782 1.50918,14.366185 -1.99587,2.838676 -3.95682,3.216932 -10.61146,2.046923 z"
       id="path11928"
       inkscape:connector-curvature="0" />
    <path
       style="fill:#aa0000;fill-opacity:1;stroke:#f5f0b9;stroke-width:0;stroke-miterlimit:4;stroke-opacity:1;stroke-dasharray:none"
       d="m 417.83042,-35.202708 c -1.04542,-4.611497 0.0377,-7.574814 5.12602,-14.025152 5.81389,-7.37004 6.096,-9.999054 1.96291,-18.293321 -2.72629,-5.471103 -3.4454,-8.546025 -2.23321,-9.54916 0.90851,-0.751822 8.07583,2.512206 27.75476,12.639627 9.97886,5.135453 18.69075,9.600728 19.35974,9.922829 0.96094,0.462679 0.9884,1.121984 0.13075,3.139987 -1.11005,2.611896 -0.80398,11.891835 0.47212,14.314677 0.52559,0.997898 0.15351,1.428305 -1.49908,1.734062 -3.36232,0.622091 -22.26235,1.877843 -37.10894,2.465587 l -13.31304,0.527031 -0.65203,-2.876167 z"
       id="path11930"
       inkscape:connector-curvature="0" />
    <path
       style="fill:#aa0000;fill-opacity:1;stroke:#f5f0b9;stroke-width:0;stroke-miterlimit:4;stroke-opacity:1;stroke-dasharray:none"
       d="m 436.81831,-29.974678 c -11.10405,-1.929559 -20.29358,-3.589307 -20.42119,-3.688337 -0.12762,-0.09902 0.44715,-1.829531 1.27723,-3.845563 1.48187,-3.599009 1.45331,-11.833379 -0.0542,-15.63657 -0.52604,-1.327095 0.11116,-1.764692 4.36116,-2.995033 2.73747,-0.792474 13.7784,-4.565816 24.53542,-8.385204 20.9746,-7.447246 24.97563,-8.526197 25.15703,-6.784085 0.23491,2.25603 -0.42167,3.524495 -4.56386,8.816922 -5.84263,7.465075 -6.03896,9.762634 -1.71897,20.116114 3.07308,7.365029 3.33001,8.567492 2.42496,11.348954 -1.87766,5.770459 -3.52661,5.826457 -30.99753,1.052802 z"
       id="path11932"
       inkscape:connector-curvature="0" />
  </g>
</svg>
