<?xml version="1.0" encoding="UTF-8" standalone="no"?>
<!-- Created with Inkscape (http://www.inkscape.org/) -->

<svg
   xmlns:dc="http://purl.org/dc/elements/1.1/"
   xmlns:cc="http://creativecommons.org/ns#"
   xmlns:rdf="http://www.w3.org/1999/02/22-rdf-syntax-ns#"
   xmlns:svg="http://www.w3.org/2000/svg"
   xmlns="http://www.w3.org/2000/svg"
   xmlns:sodipodi="http://sodipodi.sourceforge.net/DTD/sodipodi-0.dtd"
   xmlns:inkscape="http://www.inkscape.org/namespaces/inkscape"
   width="956.69287"
   height="956.69287"
   id="svg1878"
   sodipodi:version="0.32"
   inkscape:version="0.48.4 r9939"
   version="1.0"
   sodipodi:docname="New document 19">
  <defs
     id="defs1880" />
  <sodipodi:namedview
     pagecolor="#ffffff"
     bordercolor="#666666"
     borderopacity="1.0"
     inkscape:pageopacity="0.0"
     inkscape:pageshadow="2"
     inkscape:zoom="0.26924932"
     inkscape:cx="46.691507"
     inkscape:cy="430.36589"
     inkscape:document-units="mm"
     inkscape:current-layer="layer1"
     id="namedview1882"
     width="269.99999mm"
     height="189mm"
     units="mm"
     showguides="true"
     inkscape:guide-bbox="true"
     inkscape:window-width="1024"
     inkscape:window-height="719"
     inkscape:window-x="-4"
     inkscape:window-y="-4"
     showgrid="false"
     inkscape:window-maximized="0">
    <sodipodi:guide
       orientation="vertical"
       position="10.629921"
       id="guide1887" />
    <sodipodi:guide
       orientation="vertical"
       position="946.063"
       id="guide1889" />
    <sodipodi:guide
       orientation="horizontal"
       position="787.37432,10.629921"
       id="guide1891" />
    <sodipodi:guide
       orientation="horizontal"
       position="10.629921"
       id="guide1893" />
    <sodipodi:guide
       orientation="vertical"
       position="-245.12597,1110.4949"
       id="guide1895" />
    <sodipodi:guide
       orientation="vertical"
       position="946.063,1155.0633"
       id="guide1897" />
  </sodipodi:namedview>
  <metadata
     id="metadata1884">
    <rdf:RDF>
      <cc:Work
         rdf:about="">
        <dc:format>image/svg+xml</dc:format>
        <dc:type
           rdf:resource="http://purl.org/dc/dcmitype/StillImage" />
        <dc:title></dc:title>
      </cc:Work>
    </rdf:RDF>
  </metadata>
  <g
     inkscape:label="Layer 1"
     inkscape:groupmode="layer"
     id="layer1"
     transform="translate(0,287.00789)">
    <g
       id="g9055"
       transform="matrix(1.2293734,0,0,1.2293734,8.6116338,-417.54167)">
      <path
         inkscape:connector-curvature="0"
         id="path3181"
         d="M 103.08232,821.65078 C 65.154104,750.82097 61.688741,741.93566 61.639955,715.39161 c -0.04551,-24.90896 7.576336,-44.71023 22.63106,-58.79212 7.212319,-6.74636 11.084221,-13.73874 32.113035,-57.99456 13.15151,-27.6778 24.72373,-50.28229 25.71611,-50.23217 4.19392,0.21178 34.68367,15.3948 34.29489,17.0779 -0.23411,1.01332 -5.21167,11.96363 -11.06132,24.33399 -10.35553,21.89892 -10.56013,22.60712 -7.76353,26.87524 2.95239,4.50596 6.05116,5.50947 8.94251,2.89595 0.90518,-0.81826 19.32049,-10.57752 40.92297,-21.68729 l 39.27714,-20.1996 9.02029,16.68324 c 7.17193,13.26448 8.53098,16.98682 6.63213,18.16476 -1.31354,0.81482 -18.75968,10.52905 -38.76916,21.58716 -46.02153,25.43346 -43.70541,23.73638 -40.03613,29.33645 2.83182,4.32195 3.00865,4.3551 8.47095,1.58786 3.06834,-1.55441 28.48682,-14.95277 56.48551,-29.77412 47.43007,-25.10752 51.06333,-26.73372 53.19998,-23.81161 3.30166,4.51518 16.72089,30.56969 16.02031,31.10448 -0.3243,0.24752 -25.34166,14.01567 -55.59417,30.59585 -36.06919,19.76815 -55.00448,31.08323 -55.00448,32.86889 0,1.49771 0.97446,4.0057 2.16554,5.57333 1.93796,2.55071 7.3544,0.0557 51.53965,-23.74085 l 49.37415,-26.5911 9.05442,16.70915 c 8.34998,15.40924 8.82169,16.88353 6.06343,18.95042 -1.64495,1.23268 -17.41339,10.11484 -35.04083,19.73814 -44.09293,24.07154 -58.90239,32.91913 -58.90239,35.18989 0,1.06545 1.05149,3.37507 2.33651,5.1326 2.19718,3.00481 4.85032,1.87495 44.47665,-18.93966 38.79895,-20.38 42.3167,-21.89357 44.36691,-19.08972 3.26393,4.46364 16.64439,30.48428 15.95366,31.02467 -1.37261,1.07386 -63.02129,34.61344 -133.9863,72.89434 -41.92471,22.61564 -76.66618,41.3754 -77.20323,41.68848 -0.53697,0.31315 -11.45132,-18.99225 -24.2539,-42.90082 l 0,0 z"
         style="fill:#b3b3b3;fill-opacity:1;stroke:#f5f0b9;stroke-width:0;stroke-miterlimit:4;stroke-opacity:1;stroke-dasharray:none" />
      <path
         inkscape:connector-curvature="0"
         id="path3183"
         d="m 509.79827,404.58681 c -8.37156,-3.9016 -15.49487,-7.35259 -15.82938,-7.66887 -0.3346,-0.31629 1.87742,-5.80151 4.91547,-12.18938 3.03806,-6.38786 7.4861,-15.98502 9.88456,-21.327 l 4.36088,-9.7127 -2.04756,-4.17484 c -1.12617,-2.29617 -2.57496,-4.17486 -3.21948,-4.17486 -0.64463,0 -5.95495,2.37099 -11.80071,5.26885 l -10.62878,5.26888 -1.28235,-1.87879 c -3.0467,-4.46378 -15.85804,-29.3022 -15.23647,-29.5403 3.45524,-1.32369 20.25913,-12.04598 20.46296,-13.05714 0.14536,-0.72089 -0.16627,-2.35014 -0.69251,-3.62053 -1.99077,-4.80632 -2.3831,-4.70562 -22.82875,5.86019 -10.39162,5.37014 -21.07388,10.92323 -23.73841,12.3402 -4.77924,2.54165 -4.85982,2.55532 -5.98747,1.0152 -3.00406,-4.10282 -16.17588,-29.50268 -15.59177,-30.0662 0.36566,-0.35281 6.61368,-3.85362 13.88451,-7.77959 27.17572,-14.67392 33.22441,-18.23483 33.22441,-19.55948 0,-0.7134 -0.81524,-2.4906 -1.81159,-3.94937 -1.4253,-2.08675 -2.2991,-2.62429 -4.098,-2.52101 -1.32275,0.0759 -20.11579,9.73346 -44.58851,22.91351 -23.26605,12.53023 -42.58523,22.83325 -42.93141,22.89561 -0.86607,0.156 -4.74764,-7.24112 -6.62366,-12.62287 -0.85061,-2.43998 -2.36423,-5.31449 -3.3636,-6.38778 -0.99947,-1.07328 -3.09843,-4.29953 -4.66445,-7.16944 l -2.84734,-5.21803 1.79998,-0.94635 c 26.02648,-13.68355 87.27252,-47.40718 87.27252,-48.05446 0,-0.18651 -0.67683,-1.66584 -1.50403,-3.28739 -2.99177,-5.86424 -1.54281,-6.27484 -27.95865,7.92294 -13.20351,7.09659 -30.14587,16.12411 -37.64966,20.06119 l -13.6432,7.15832 -1.61723,-2.02823 c -3.02526,-3.79397 -16.1566,-28.67757 -15.48054,-29.33509 1.63324,-1.58834 189.88232,-103.02361 191.1968,-103.02361 1.07008,0 4.1776,5.48266 24.46076,43.15608 21.03286,39.06608 27.32772,51.52442 28.93531,57.26715 0.82278,2.93936 2.44073,11.99472 3.59548,20.12302 l 2.09943,14.77872 -1.33706,9.61458 c -2.97808,21.41553 -6.92262,30.57859 -18.36918,42.67157 -4.12428,4.35721 -8.07885,8.84113 -8.78808,9.96427 -0.70912,1.12314 -8.46351,16.92973 -17.23195,35.12575 -21.0973,43.78041 -25.73513,52.98897 -26.68505,52.98466 -0.43728,-0.003 -7.64459,-3.1958 -16.01624,-7.09738 l 0,0 z"
         style="fill:#b3b3b3;fill-opacity:1;stroke:#f5f0b9;stroke-width:0;stroke-miterlimit:4;stroke-opacity:1;stroke-dasharray:none" />
      <path
         d="m 235.53805,318.96382 v 183.0083 H 479.54916 V 318.96382 H 235.53805 z M 459.21482,481.63787 H 255.87226 V 339.29808 h 203.34256 v 142.33979 z m 20.33434,40.6685 40.66852,81.33671 -325.34817,0 40.66854,-81.33671 z"
         id="path11"
         inkscape:connector-curvature="0" />
      <text
         sodipodi:linespacing="125%"
         id="text2985"
         y="428.62552"
         x="259.44025"
         style="font-size:27.86756516px;font-style:normal;font-weight:normal;line-height:125%;letter-spacing:0px;word-spacing:0px;fill:#000000;fill-opacity:1;stroke:none;font-family:Sans"
         xml:space="preserve"><tspan
           style="font-size:50.66830444px"
           y="428.62552"
           x="259.44025"
           id="tspan2987"
           sodipodi:role="line">against </tspan><tspan
           id="tspan3039"
           style="font-size:50.66830444px"
           y="491.96091"
           x="259.44025"
           sodipodi:role="line" /><tspan
           style="font-size:50.66830444px"
           id="tspan2989"
           y="555.29626"
           x="259.44025"
           sodipodi:role="line" /><tspan
           style="font-size:50.66830444px"
           id="tspan2991"
           y="618.63165"
           x="259.44025"
           sodipodi:role="line" /></text>
      <text
         sodipodi:linespacing="125%"
         id="text3041"
         y="663.06561"
         x="400.73999"
         style="font-size:47.21662903px;font-style:normal;font-weight:normal;line-height:125%;letter-spacing:0px;word-spacing:0px;fill:#000000;fill-opacity:1;stroke:none;font-family:Sans"
         xml:space="preserve"><tspan
           style="font-size:77.26358032px;font-style:normal;font-variant:normal;font-weight:bold;font-stretch:normal;font-family:Century Schoolbook L;-inkscape-font-specification:Century Schoolbook L Bold"
           y="663.06561"
           x="400.73999"
           id="tspan3043"
           sodipodi:role="line">Poverty</tspan></text>
      <text
         sodipodi:linespacing="125%"
         id="text3067"
         y="304.35971"
         x="44.02301"
         style="font-size:64.52874756px;font-style:normal;font-weight:normal;line-height:125%;letter-spacing:0px;word-spacing:0px;fill:#000000;fill-opacity:1;stroke:none;font-family:Sans"
         xml:space="preserve"><tspan
           style="font-style:normal;font-variant:normal;font-weight:bold;font-stretch:normal;font-family:Bitstream Charter;-inkscape-font-specification:Bitstream Charter Bold"
           y="304.35971"
           x="44.02301"
           id="tspan3069"
           sodipodi:role="line">Open Source</tspan></text>
    </g>
  </g>
</svg>
