<?xml version="1.0" encoding="UTF-8" standalone="no"?>
<!-- Created with Inkscape (http://www.inkscape.org/) -->
<svg xmlns:svg="http://www.w3.org/2000/svg" xmlns="http://www.w3.org/2000/svg" version="1.1" width="410" height="410" id="svg2">
  <defs id="defs4"/>
  <g transform="translate(-176,-323.50504)" id="layer1">
    <rect width="394.28571" height="394.28571" x="183.85715" y="331.36218" id="rect2816" style="fill:#ffe34b;fill-opacity:1;fill-rule:nonzero;stroke:#000000;stroke-width:8;stroke-linecap:round;stroke-linejoin:round;stroke-miterlimit:4;stroke-opacity:1;stroke-dasharray:none;stroke-dashoffset:0"/>
    <path d="m 369.60715,331.36161 -1.21875,394.28125 24,0 1.21875,-394.28125 -24,0 z" id="path2818" style="font-size:medium;font-style:normal;font-variant:normal;font-weight:normal;font-stretch:normal;text-indent:0;text-align:start;text-decoration:none;line-height:normal;letter-spacing:normal;word-spacing:normal;text-transform:none;direction:ltr;block-progression:tb;writing-mode:lr-tb;text-anchor:start;color:#000000;fill:#ff7272;fill-opacity:1;fill-rule:nonzero;stroke:#000000;stroke-width:2;stroke-miterlimit:4;stroke-opacity:1;stroke-dasharray:none;marker:none;visibility:visible;display:inline;overflow:visible;enable-background:accumulate;font-family:AlArabiya;-inkscape-font-specification:AlArabiya"/>
    <path d="m 183.85715,516.51786 0,24 394.28125,0 0,-24 -394.28125,0 z" id="path2820" style="font-size:medium;font-style:normal;font-variant:normal;font-weight:normal;font-stretch:normal;text-indent:0;text-align:start;text-decoration:none;line-height:normal;letter-spacing:normal;word-spacing:normal;text-transform:none;direction:ltr;block-progression:tb;writing-mode:lr-tb;text-anchor:start;color:#000000;fill:#ff7272;fill-opacity:1;fill-rule:nonzero;stroke:#000000;stroke-width:2;stroke-miterlimit:4;stroke-opacity:1;stroke-dasharray:none;marker:none;visibility:visible;display:inline;overflow:visible;enable-background:accumulate;font-family:AlArabiya;-inkscape-font-specification:AlArabiya"/>
    <path d="m 372.5134,520.01786 -157.71875,157.71875 16.96875,16.96875 149.21875,-149.25 149.25,149.25 16.96875,-16.96875 -157.71875,-157.71875 -16.96875,0 z" id="path2824" style="font-size:medium;font-style:normal;font-variant:normal;font-weight:normal;font-stretch:normal;text-indent:0;text-align:start;text-decoration:none;line-height:normal;letter-spacing:normal;word-spacing:normal;text-transform:none;direction:ltr;block-progression:tb;writing-mode:lr-tb;text-anchor:start;color:#000000;fill:#ff7272;fill-opacity:1;fill-rule:nonzero;stroke:#000000;stroke-width:2;stroke-miterlimit:4;stroke-opacity:1;stroke-dasharray:none;marker:none;visibility:visible;display:inline;overflow:visible;enable-background:accumulate;font-family:AlArabiya;-inkscape-font-specification:AlArabiya"/>
    <path d="m 392.48215,524.98661 -28.4375,-92.5625 c -7.9939,-26.02576 -27.93046,-39.71268 -48,-39.84375 -20.06954,-0.13107 -39.26862,10.0549 -54.0625,24.03125 -14.79388,13.97635 -25.92601,32.39054 -24.65625,52.40625 0.63488,10.00785 4.94916,20.13279 12.9375,28.09375 7.98834,7.96096 19.22272,13.84673 33.75,17.75 l 93.875,25.21875 m -62,-123.5 c 11.15121,0.0728 19.39856,3.95745 25.21875,22.90625 l 22.03125,71.8125 -72.90625,-19.59375 c -11.64616,-3.12915 -18.88239,-7.4591 -23.03125,-11.59375 -4.14886,-4.13465 -5.64251,-7.97496 -5.9375,-12.625 -0.58998,-9.30009 5.98524,-22.8543 17.1875,-33.4375 11.20226,-10.5832 26.28629,-17.54158 37.4375,-17.46875 z" id="path2828" style="font-size:medium;font-style:normal;font-variant:normal;font-weight:normal;font-stretch:normal;text-indent:0;text-align:start;text-decoration:none;line-height:normal;letter-spacing:normal;word-spacing:normal;text-transform:none;direction:ltr;block-progression:tb;writing-mode:lr-tb;text-anchor:start;color:#000000;fill:#ff7272;fill-opacity:1;stroke:#000000;stroke-width:2;stroke-miterlimit:4;stroke-opacity:1;stroke-dasharray:none;marker:none;visibility:visible;display:inline;overflow:visible;enable-background:accumulate;font-family:AlArabiya;-inkscape-font-specification:AlArabiya"/>
    <path d="m 384.10715,540.08036 93.875,-25.21875 c 14.52728,-3.90326 25.76166,-9.78904 33.75,-17.75 7.98834,-7.96096 12.30262,-18.0859 12.9375,-28.09375 1.26976,-20.01571 -9.86237,-38.4299 -24.65625,-52.40625 -14.79388,-13.97635 -33.99296,-24.16232 -54.0625,-24.03125 -20.06954,0.13107 -40.0061,13.81799 -48,39.84375 l -28.4375,92.5625 m 76.59375,-108.40625 c 11.15121,-0.0728 26.23524,6.88555 37.4375,17.46875 11.20226,10.5832 17.77748,24.13741 17.1875,33.4375 -0.29499,4.65004 -1.78864,8.49035 -5.9375,12.625 -4.14886,4.13465 -11.38509,8.4646 -23.03125,11.59375 l -72.90625,19.59375 22.03125,-71.8125 c 5.82019,-18.9488 14.06754,-22.83342 25.21875,-22.90625 z" id="path3625" style="font-size:medium;font-style:normal;font-variant:normal;font-weight:normal;font-stretch:normal;text-indent:0;text-align:start;text-decoration:none;line-height:normal;letter-spacing:normal;word-spacing:normal;text-transform:none;direction:ltr;block-progression:tb;writing-mode:lr-tb;text-anchor:start;color:#000000;fill:#ff7272;fill-opacity:1;stroke:#000000;stroke-width:2;stroke-miterlimit:4;stroke-opacity:1;stroke-dasharray:none;marker:none;visibility:visible;display:inline;overflow:visible;enable-background:accumulate;font-family:AlArabiya;-inkscape-font-specification:AlArabiya"/>
  </g>
</svg>